<svg width="174" height="139" viewBox="0 0 174 139" fill="none" xmlns="http://www.w3.org/2000/svg">
<g clip-path="url(#clip0_36_4124)">
<g filter="url(#filter0_d_36_4124)">
<rect width="7" height="1" rx="0.5" transform="matrix(0.00262179 0.999997 0.999997 -0.00262179 143.018 75)" fill="#DED5C0"/>
<rect width="7" height="1" rx="0.5" transform="matrix(0.00262179 0.999997 0.999997 -0.00262179 143.018 75)" fill="#DED5C0"/>
<rect width="7" height="1" rx="0.5" transform="matrix(0.00262179 0.999997 0.999997 -0.00262179 143.018 75)" fill="#DED5C0"/>
<rect width="7" height="1" rx="0.5" transform="matrix(0.00262179 0.999997 0.999997 -0.00262179 143.018 75)" fill="#DED5C0"/>
<rect width="7" height="1" rx="0.5" transform="matrix(0.00262179 0.999997 0.999997 -0.00262179 143.018 75)" fill="#DED5C0"/>
</g>
<g filter="url(#filter1_d_36_4124)">
<rect x="142.994" y="65.0039" width="5" height="1" rx="0.5" transform="rotate(-90.1502 142.994 65.0039)" fill="#DED5C0"/>
<rect x="142.994" y="65.0039" width="5" height="1" rx="0.5" transform="rotate(-90.1502 142.994 65.0039)" fill="#DED5C0"/>
<rect x="142.994" y="65.0039" width="5" height="1" rx="0.5" transform="rotate(-90.1502 142.994 65.0039)" fill="#DED5C0"/>
<rect x="142.994" y="65.0039" width="5" height="1" rx="0.5" transform="rotate(-90.1502 142.994 65.0039)" fill="#DED5C0"/>
<rect x="142.994" y="65.0039" width="5" height="1" rx="0.5" transform="rotate(-90.1502 142.994 65.0039)" fill="#DED5C0"/>
</g>
<g filter="url(#filter2_d_36_4124)">
<rect x="146.785" y="16.5039" width="108.133" height="5" rx="2.5" transform="rotate(89.8498 146.785 16.5039)" fill="#DED5C0"/>
<rect x="146.785" y="16.5039" width="108.133" height="5" rx="2.5" transform="rotate(89.8498 146.785 16.5039)" fill="#DED5C0"/>
<rect x="146.785" y="16.5039" width="108.133" height="5" rx="2.5" transform="rotate(89.8498 146.785 16.5039)" fill="#DED5C0"/>
<rect x="146.785" y="16.5039" width="108.133" height="5" rx="2.5" transform="rotate(89.8498 146.785 16.5039)" fill="#DED5C0"/>
<rect x="146.785" y="16.5039" width="108.133" height="5" rx="2.5" transform="rotate(89.8498 146.785 16.5039)" fill="#DED5C0"/>
</g>
<g filter="url(#filter3_d_36_4124)">
<rect x="20" y="15.332" width="127.161" height="5" rx="2.5" transform="rotate(-0.150218 20 15.332)" fill="#DED5C0"/>
<rect x="20" y="15.332" width="127.161" height="5" rx="2.5" transform="rotate(-0.150218 20 15.332)" fill="#DED5C0"/>
<rect x="20" y="15.332" width="127.161" height="5" rx="2.5" transform="rotate(-0.150218 20 15.332)" fill="#DED5C0"/>
<rect x="20" y="15.332" width="127.161" height="5" rx="2.5" transform="rotate(-0.150218 20 15.332)" fill="#DED5C0"/>
<rect x="20" y="15.332" width="127.161" height="5" rx="2.5" transform="rotate(-0.150218 20 15.332)" fill="#DED5C0"/>
</g>
<g filter="url(#filter4_d_36_4124)">
<rect x="24.0859" y="75" width="7" height="1" rx="0.5" transform="rotate(90.1502 24.0859 75)" fill="#DED5C0"/>
<rect x="24.0859" y="75" width="7" height="1" rx="0.5" transform="rotate(90.1502 24.0859 75)" fill="#DED5C0"/>
<rect x="24.0859" y="75" width="7" height="1" rx="0.5" transform="rotate(90.1502 24.0859 75)" fill="#DED5C0"/>
<rect x="24.0859" y="75" width="7" height="1" rx="0.5" transform="rotate(90.1502 24.0859 75)" fill="#DED5C0"/>
<rect x="24.0859" y="75" width="7" height="1" rx="0.5" transform="rotate(90.1502 24.0859 75)" fill="#DED5C0"/>
</g>
<g filter="url(#filter5_d_36_4124)">
<rect width="5" height="1" rx="0.5" transform="matrix(0.00262179 -0.999997 -0.999997 -0.00262179 24.1094 65.0039)" fill="#DED5C0"/>
<rect width="5" height="1" rx="0.5" transform="matrix(0.00262179 -0.999997 -0.999997 -0.00262179 24.1094 65.0039)" fill="#DED5C0"/>
<rect width="5" height="1" rx="0.5" transform="matrix(0.00262179 -0.999997 -0.999997 -0.00262179 24.1094 65.0039)" fill="#DED5C0"/>
<rect width="5" height="1" rx="0.5" transform="matrix(0.00262179 -0.999997 -0.999997 -0.00262179 24.1094 65.0039)" fill="#DED5C0"/>
<rect width="5" height="1" rx="0.5" transform="matrix(0.00262179 -0.999997 -0.999997 -0.00262179 24.1094 65.0039)" fill="#DED5C0"/>
</g>
<g filter="url(#filter6_d_36_4124)">
<rect width="108.133" height="5" rx="2.5" transform="matrix(-0.00262179 0.999997 0.999997 0.00262179 20.3184 16.5039)" fill="#DED5C0"/>
<rect width="108.133" height="5" rx="2.5" transform="matrix(-0.00262179 0.999997 0.999997 0.00262179 20.3184 16.5039)" fill="#DED5C0"/>
<rect width="108.133" height="5" rx="2.5" transform="matrix(-0.00262179 0.999997 0.999997 0.00262179 20.3184 16.5039)" fill="#DED5C0"/>
<rect width="108.133" height="5" rx="2.5" transform="matrix(-0.00262179 0.999997 0.999997 0.00262179 20.3184 16.5039)" fill="#DED5C0"/>
<rect width="108.133" height="5" rx="2.5" transform="matrix(-0.00262179 0.999997 0.999997 0.00262179 20.3184 16.5039)" fill="#DED5C0"/>
</g>
<g filter="url(#filter7_d_36_4124)">
<rect x="20" y="120.332" width="127.161" height="5" rx="2.5" transform="rotate(-0.150218 20 120.332)" fill="#DED5C0"/>
<rect x="20" y="120.332" width="127.161" height="5" rx="2.5" transform="rotate(-0.150218 20 120.332)" fill="#DED5C0"/>
<rect x="20" y="120.332" width="127.161" height="5" rx="2.5" transform="rotate(-0.150218 20 120.332)" fill="#DED5C0"/>
<rect x="20" y="120.332" width="127.161" height="5" rx="2.5" transform="rotate(-0.150218 20 120.332)" fill="#DED5C0"/>
<rect x="20" y="120.332" width="127.161" height="5" rx="2.5" transform="rotate(-0.150218 20 120.332)" fill="#DED5C0"/>
</g>
</g>
<defs>
<filter id="filter0_d_36_4124" x="139.02" y="75" width="9.01562" height="15" filterUnits="userSpaceOnUse" color-interpolation-filters="sRGB">
<feFlood flood-opacity="0" result="BackgroundImageFix"/>
<feColorMatrix in="SourceAlpha" type="matrix" values="0 0 0 0 0 0 0 0 0 0 0 0 0 0 0 0 0 0 127 0" result="hardAlpha"/>
<feOffset dy="4"/>
<feGaussianBlur stdDeviation="2"/>
<feComposite in2="hardAlpha" operator="out"/>
<feColorMatrix type="matrix" values="0 0 0 0 0 0 0 0 0 0 0 0 0 0 0 0 0 0 0.25 0"/>
<feBlend mode="normal" in2="BackgroundImageFix" result="effect1_dropShadow_36_4124"/>
<feBlend mode="normal" in="SourceGraphic" in2="effect1_dropShadow_36_4124" result="shape"/>
</filter>
<filter id="filter1_d_36_4124" x="138.982" y="60.0039" width="9.00977" height="13" filterUnits="userSpaceOnUse" color-interpolation-filters="sRGB">
<feFlood flood-opacity="0" result="BackgroundImageFix"/>
<feColorMatrix in="SourceAlpha" type="matrix" values="0 0 0 0 0 0 0 0 0 0 0 0 0 0 0 0 0 0 127 0" result="hardAlpha"/>
<feOffset dy="4"/>
<feGaussianBlur stdDeviation="2"/>
<feComposite in2="hardAlpha" operator="out"/>
<feColorMatrix type="matrix" values="0 0 0 0 0 0 0 0 0 0 0 0 0 0 0 0 0 0 0.25 0"/>
<feBlend mode="normal" in2="BackgroundImageFix" result="effect1_dropShadow_36_4124"/>
<feBlend mode="normal" in="SourceGraphic" in2="effect1_dropShadow_36_4124" result="shape"/>
</filter>
<filter id="filter2_d_36_4124" x="137.791" y="16.5117" width="13.2715" height="116.133" filterUnits="userSpaceOnUse" color-interpolation-filters="sRGB">
<feFlood flood-opacity="0" result="BackgroundImageFix"/>
<feColorMatrix in="SourceAlpha" type="matrix" values="0 0 0 0 0 0 0 0 0 0 0 0 0 0 0 0 0 0 127 0" result="hardAlpha"/>
<feOffset dy="4"/>
<feGaussianBlur stdDeviation="2"/>
<feComposite in2="hardAlpha" operator="out"/>
<feColorMatrix type="matrix" values="0 0 0 0 0 0 0 0 0 0 0 0 0 0 0 0 0 0 0.25 0"/>
<feBlend mode="normal" in2="BackgroundImageFix" result="effect1_dropShadow_36_4124"/>
<feBlend mode="normal" in="SourceGraphic" in2="effect1_dropShadow_36_4124" result="shape"/>
</filter>
<filter id="filter3_d_36_4124" x="16.0059" y="15.0039" width="135.162" height="13.3203" filterUnits="userSpaceOnUse" color-interpolation-filters="sRGB">
<feFlood flood-opacity="0" result="BackgroundImageFix"/>
<feColorMatrix in="SourceAlpha" type="matrix" values="0 0 0 0 0 0 0 0 0 0 0 0 0 0 0 0 0 0 127 0" result="hardAlpha"/>
<feOffset dy="4"/>
<feGaussianBlur stdDeviation="2"/>
<feComposite in2="hardAlpha" operator="out"/>
<feColorMatrix type="matrix" values="0 0 0 0 0 0 0 0 0 0 0 0 0 0 0 0 0 0 0.25 0"/>
<feBlend mode="normal" in2="BackgroundImageFix" result="effect1_dropShadow_36_4124"/>
<feBlend mode="normal" in="SourceGraphic" in2="effect1_dropShadow_36_4124" result="shape"/>
</filter>
<filter id="filter4_d_36_4124" x="19.0684" y="75" width="9.01562" height="15" filterUnits="userSpaceOnUse" color-interpolation-filters="sRGB">
<feFlood flood-opacity="0" result="BackgroundImageFix"/>
<feColorMatrix in="SourceAlpha" type="matrix" values="0 0 0 0 0 0 0 0 0 0 0 0 0 0 0 0 0 0 127 0" result="hardAlpha"/>
<feOffset dy="4"/>
<feGaussianBlur stdDeviation="2"/>
<feComposite in2="hardAlpha" operator="out"/>
<feColorMatrix type="matrix" values="0 0 0 0 0 0 0 0 0 0 0 0 0 0 0 0 0 0 0.25 0"/>
<feBlend mode="normal" in2="BackgroundImageFix" result="effect1_dropShadow_36_4124"/>
<feBlend mode="normal" in="SourceGraphic" in2="effect1_dropShadow_36_4124" result="shape"/>
</filter>
<filter id="filter5_d_36_4124" x="19.1113" y="60.0039" width="9.00977" height="13" filterUnits="userSpaceOnUse" color-interpolation-filters="sRGB">
<feFlood flood-opacity="0" result="BackgroundImageFix"/>
<feColorMatrix in="SourceAlpha" type="matrix" values="0 0 0 0 0 0 0 0 0 0 0 0 0 0 0 0 0 0 127 0" result="hardAlpha"/>
<feOffset dy="4"/>
<feGaussianBlur stdDeviation="2"/>
<feComposite in2="hardAlpha" operator="out"/>
<feColorMatrix type="matrix" values="0 0 0 0 0 0 0 0 0 0 0 0 0 0 0 0 0 0 0.25 0"/>
<feBlend mode="normal" in2="BackgroundImageFix" result="effect1_dropShadow_36_4124"/>
<feBlend mode="normal" in="SourceGraphic" in2="effect1_dropShadow_36_4124" result="shape"/>
</filter>
<filter id="filter6_d_36_4124" x="16.041" y="16.5117" width="13.2715" height="116.133" filterUnits="userSpaceOnUse" color-interpolation-filters="sRGB">
<feFlood flood-opacity="0" result="BackgroundImageFix"/>
<feColorMatrix in="SourceAlpha" type="matrix" values="0 0 0 0 0 0 0 0 0 0 0 0 0 0 0 0 0 0 127 0" result="hardAlpha"/>
<feOffset dy="4"/>
<feGaussianBlur stdDeviation="2"/>
<feComposite in2="hardAlpha" operator="out"/>
<feColorMatrix type="matrix" values="0 0 0 0 0 0 0 0 0 0 0 0 0 0 0 0 0 0 0.25 0"/>
<feBlend mode="normal" in2="BackgroundImageFix" result="effect1_dropShadow_36_4124"/>
<feBlend mode="normal" in="SourceGraphic" in2="effect1_dropShadow_36_4124" result="shape"/>
</filter>
<filter id="filter7_d_36_4124" x="16.0059" y="120.004" width="135.162" height="13.3203" filterUnits="userSpaceOnUse" color-interpolation-filters="sRGB">
<feFlood flood-opacity="0" result="BackgroundImageFix"/>
<feColorMatrix in="SourceAlpha" type="matrix" values="0 0 0 0 0 0 0 0 0 0 0 0 0 0 0 0 0 0 127 0" result="hardAlpha"/>
<feOffset dy="4"/>
<feGaussianBlur stdDeviation="2"/>
<feComposite in2="hardAlpha" operator="out"/>
<feColorMatrix type="matrix" values="0 0 0 0 0 0 0 0 0 0 0 0 0 0 0 0 0 0 0.25 0"/>
<feBlend mode="normal" in2="BackgroundImageFix" result="effect1_dropShadow_36_4124"/>
<feBlend mode="normal" in="SourceGraphic" in2="effect1_dropShadow_36_4124" result="shape"/>
</filter>
<clipPath id="clip0_36_4124">
<rect width="174" height="139" fill="white"/>
</clipPath>
</defs>
</svg>
