<?xml version="1.0" standalone="no"?>
<!DOCTYPE svg PUBLIC "-//W3C//DTD SVG 20010904//EN"
 "http://www.w3.org/TR/2001/REC-SVG-20010904/DTD/svg10.dtd">
<svg version="1.0" xmlns="http://www.w3.org/2000/svg"
 width="500.000000pt" height="500.000000pt" viewBox="0 0 500.000000 500.000000"
 preserveAspectRatio="xMidYMid meet">

<g transform="translate(0.000000,500.000000) scale(0.100000,-0.100000)"
fill="#000000" stroke="none">
<path d="M2335 4924 c-390 -40 -657 -115 -952 -269 -637 -331 -1094 -923
-1252 -1620 -76 -336 -76 -732 0 -1070 60 -265 184 -560 329 -783 52 -78 55
-81 66 -60 7 13 37 111 67 218 85 297 282 993 339 1195 27 99 63 223 78 275
15 52 58 203 95 335 37 132 71 254 76 270 5 17 22 75 38 130 l28 99 -54 110
c-102 208 -114 300 -51 371 55 63 74 65 592 65 478 -1 540 -5 614 -44 48 -25
106 -87 164 -174 28 -42 235 -448 461 -902 225 -454 411 -827 413 -829 2 -2 6
-2 9 0 4 5 65 209 91 309 8 30 24 84 34 120 18 57 158 551 173 605 3 11 24 85
47 165 69 236 63 303 -43 437 -57 74 -72 117 -58 170 31 114 116 143 427 143
l179 1 -85 81 c-347 329 -817 557 -1295 628 -133 20 -438 33 -530 24z"/>
<path d="M4526 3742 c-73 -72 -88 -109 -191 -482 -31 -113 -72 -259 -90 -325
-19 -66 -50 -178 -70 -250 -20 -71 -42 -152 -50 -180 -25 -87 -112 -396 -140
-500 -15 -55 -47 -167 -70 -250 -24 -82 -55 -195 -70 -250 -15 -55 -41 -147
-57 -205 -16 -58 -35 -127 -43 -155 -64 -233 -145 -398 -241 -491 -49 -49
-143 -97 -229 -119 -68 -17 -231 -20 -290 -4 -228 59 -349 187 -525 554 -129
267 -380 796 -380 800 0 2 -46 99 -103 217 -57 117 -152 317 -212 445 l-110
232 -13 -42 c-7 -23 -51 -175 -97 -337 -47 -162 -89 -308 -94 -325 -6 -16 -58
-196 -116 -400 -59 -203 -115 -399 -126 -435 -25 -87 -34 -204 -20 -257 7 -24
33 -71 59 -105 81 -107 85 -115 80 -173 -4 -50 -4 -51 14 -33 10 10 27 18 37
18 10 0 22 7 25 16 4 10 14 14 26 11 40 -10 78 66 90 181 7 66 6 90 -3 102
-24 28 -37 70 -37 115 0 25 -4 45 -10 45 -13 0 -62 94 -77 150 -18 64 -16 91
6 97 13 3 17 11 14 31 -10 59 -10 212 -1 212 6 0 8 7 5 15 -7 16 43 70 73 80
11 4 20 11 20 16 0 5 11 9 25 9 18 0 23 4 18 16 -5 14 -3 15 15 5 14 -7 22 -8
22 -2 0 26 188 47 257 28 24 -6 43 -15 43 -19 0 -4 15 -15 33 -24 17 -9 44
-30 60 -48 82 -93 90 -112 88 -222 -2 -86 -1 -92 20 -97 19 -5 21 -11 17 -59
-4 -52 -62 -188 -80 -188 -5 0 -8 -19 -8 -42 0 -24 -9 -63 -20 -87 -15 -33
-20 -65 -20 -138 0 -127 25 -171 105 -185 52 -10 230 -65 262 -81 17 -9 49
-19 72 -23 31 -5 54 -20 104 -68 59 -56 67 -68 92 -146 28 -89 50 -248 40
-289 l-6 -24 83 7 c558 45 1138 328 1529 744 353 376 571 831 646 1347 23 164
23 486 0 650 -42 289 -125 548 -254 795 -92 176 -82 167 -127 122z"/>
</g>
</svg>
