<svg width="329" height="561" viewBox="0 0 329 561" fill="none" xmlns="http://www.w3.org/2000/svg">
<path d="M170 164C135.758 164 108 191.758 108 226V353C108 369.797 114.681 385.034 125.529 396.199C125.733 394.903 126.001 393.378 126.328 391.534C130.005 370.828 131.843 360.475 133.948 357.638C139.945 349.555 152.044 349.555 158.041 357.638C160.146 360.475 161.985 370.828 165.661 391.534C166.608 396.865 167.08 399.53 166.832 401.703C166.214 407.106 162.733 411.704 157.809 413.8C161.751 414.586 165.827 415 170 415C204.242 415 232 387.242 232 353V226C232 209.332 225.423 194.201 214.723 183.06C214.51 184.385 214.232 185.936 213.897 187.796C210.04 209.209 208.112 219.915 205.836 222.835C199.83 230.539 188.18 230.539 182.175 222.835C179.899 219.915 177.97 209.209 174.113 187.796C173.105 182.198 172.601 179.399 172.889 177.12C173.566 171.757 177.068 167.214 181.993 165.159C178.113 164.399 174.103 164 170 164Z" fill="#2E382E"/>
<path d="M169 58C95.5461 58 36 117.546 36 191V370C36 443.454 95.5461 503 169 503C242.454 503 302 443.454 302 370V191C302 117.546 242.454 58 169 58ZM169.5 156C206.227 156 236 185.773 236 222.5V356.5C236 393.227 206.227 423 169.5 423C132.773 423 103 393.227 103 356.5V222.5C103 185.773 132.773 156 169.5 156Z" fill="#2E382E"/>
</svg>
