<svg width="1197" height="1000" viewBox="0 0 1197 1000" fill="none" xmlns="http://www.w3.org/2000/svg" xmlns:xlink="http://www.w3.org/1999/xlink">
<g clip-path="url(#clip0_40_1894)">
<mask id="path-1-inside-1_40_1894" fill="white">
<path d="M855 461C937.843 461 1005 528.157 1005 611V741C1005 823.843 937.843 891 855 891H81V461H855Z"/>
</mask>
<path d="M855 461C937.843 461 1005 528.157 1005 611V741C1005 823.843 937.843 891 855 891H81V461H855Z" fill="url(#pattern0_40_1894)"/>
<path d="M81 891H71V901H81V891ZM81 461V451H71V461H81ZM855 461V471C932.32 471 995 533.68 995 611H1005H1015C1015 522.634 943.366 451 855 451V461ZM1005 611H995V741H1005H1015V611H1005ZM1005 741H995C995 818.32 932.32 881 855 881V891V901C943.366 901 1015 829.366 1015 741H1005ZM855 891V881H81V891V901H855V891ZM81 891H91V461H81H71V891H81ZM81 461V471H855V461V451H81V461Z" fill="#05038D" mask="url(#path-1-inside-1_40_1894)"/>
<path d="M770 108C852.843 108 920 175.157 920 258V311C920 393.843 852.843 461 770 461H81V410H742.5C811.812 410 868 353.812 868 284.5C868 215.188 811.812 159 742.5 159H81V108H770Z" fill="#05038D"/>
<path d="M122.801 224H86.625V173.586H123.574C130.137 173.586 135.539 173.891 139.781 174.5C144.023 175.086 147.293 176.023 149.59 177.312C151.887 178.578 153.445 180.195 154.266 182.164C155.086 184.133 155.496 186.488 155.496 189.23C155.426 191.387 154.828 193.18 153.703 194.609C152.602 196.016 151.301 197.07 149.801 197.773C148.324 198.453 147.023 198.793 145.898 198.793C147 198.793 148.289 199.016 149.766 199.461C151.242 199.883 152.672 200.504 154.055 201.324C155.461 202.145 156.621 203.141 157.535 204.312C158.473 205.484 158.941 206.82 158.941 208.32C158.941 210.289 158.707 212.094 158.238 213.734C157.793 215.375 156.879 216.828 155.496 218.094C154.137 219.359 152.121 220.438 149.449 221.328C146.777 222.195 143.273 222.863 138.938 223.332C134.625 223.777 129.246 224 122.801 224ZM121.605 194.469C124.699 194.469 127.09 194.316 128.777 194.012C130.488 193.707 131.672 193.25 132.328 192.641C132.984 192.008 133.312 191.211 133.312 190.25C133.312 189.266 132.984 188.469 132.328 187.859C131.672 187.227 130.488 186.77 128.777 186.488C127.09 186.184 124.699 186.031 121.605 186.031H107.789V194.469H121.605ZM121.605 211.555C124.77 211.555 127.336 211.473 129.305 211.309C131.273 211.145 132.715 210.77 133.629 210.184C134.543 209.598 135 208.648 135 207.336C135 206.023 134.543 205.074 133.629 204.488C132.715 203.879 131.273 203.504 129.305 203.363C127.336 203.199 124.77 203.117 121.605 203.117H107.789V211.555H121.605ZM235.097 224H213.652L208.905 215.738H177.089L172.343 224H150.898L183.171 173.586H202.823L235.097 224ZM201.769 203.258L193.015 187.965L184.226 203.258H201.769ZM302.955 224H282.952C282.038 222.734 281.393 221.117 281.018 219.148C280.69 217.625 280.198 216.137 279.541 214.684C278.885 213.207 277.748 211.988 276.131 211.027C274.538 210.043 272.159 209.516 268.995 209.445H255.248V224H234.084V173.551H268.502C276.729 173.551 283.362 174.172 288.401 175.414C293.463 176.633 297.155 178.566 299.475 181.215C301.795 183.84 302.955 187.273 302.955 191.516C302.955 195.055 302.147 198.031 300.53 200.445C298.936 202.859 296.405 204.77 292.936 206.176C296.288 207.559 298.455 209.223 299.44 211.168C300.448 213.09 301.069 215.211 301.303 217.531C301.538 219.594 302.088 221.75 302.955 224ZM255.248 197L267.342 196.965C270.717 196.965 273.377 196.812 275.323 196.508C277.268 196.203 278.698 195.793 279.612 195.277C280.549 194.738 281.147 194.152 281.405 193.52C281.663 192.863 281.791 192.195 281.791 191.516C281.791 190.836 281.663 190.168 281.405 189.512C281.147 188.855 280.549 188.27 279.612 187.754C278.698 187.215 277.268 186.793 275.323 186.488C273.377 186.184 270.717 186.031 267.342 186.031H255.248V197ZM383.33 224H361.884L357.138 215.738H325.322L320.576 224H299.13L331.404 173.586H351.056L383.33 224ZM350.002 203.258L341.248 187.965L332.459 203.258H350.002ZM457.165 224H431.993L403.481 189.863V224H382.317V173.551H407.489L436.001 207.512V173.551H457.165V224ZM493.77 225.09C481.301 225.09 472.125 222.523 466.242 217.391C461.039 212.844 458.438 206.656 458.438 198.828C458.438 190.977 461.039 184.777 466.242 180.23C472.125 175.098 481.301 172.531 493.77 172.531C500.871 172.531 506.777 173.328 511.488 174.922C516.199 176.516 519.891 178.695 522.562 181.461C525.258 184.203 527.098 187.367 528.082 190.953H505.441C503.074 187.695 499.184 186.066 493.77 186.066C488.66 186.066 484.898 187.531 482.484 190.461C480.562 192.828 479.602 195.617 479.602 198.828C479.602 202.039 480.562 204.816 482.484 207.16C484.898 210.09 488.66 211.555 493.77 211.555C497.895 211.555 500.988 211.203 503.051 210.5C505.137 209.773 506.66 208.836 507.621 207.688H499.359V198.828H528.082V224.035H519.293L517.5 219.148C511.898 223.109 503.988 225.09 493.77 225.09ZM609.862 224H588.417L583.671 215.738H551.855L547.109 224H525.663L557.937 173.586H577.589L609.862 224ZM576.534 203.258L567.78 187.965L558.991 203.258H576.534ZM634.866 224H613.702V200.094L586.174 173.551H609.623L624.284 188.633L638.909 173.551H662.358L634.866 200.094V224ZM182.531 307H161.367V274.832L142.453 307H126.668L107.789 274.832V307H86.625V256.551H111.762L134.578 292.586L157.359 256.551H182.531V307ZM265.683 307H244.238L239.491 298.738H207.675L202.929 307H181.484L213.757 256.586H233.409L265.683 307ZM232.355 286.258L223.601 270.965L214.812 286.258H232.355ZM339.518 307H314.346L285.834 272.863V307H264.67V256.551H289.842L318.354 290.512V256.551H339.518V307ZM422.705 307H401.259L396.513 298.738H364.697L359.951 307H338.505L370.779 256.586H390.431L422.705 307ZM389.377 286.258L380.623 270.965L371.834 286.258H389.377ZM448.587 308.09C436.118 308.09 426.942 305.523 421.059 300.391C415.856 295.844 413.255 289.656 413.255 281.828C413.255 273.977 415.856 267.777 421.059 263.23C426.942 258.098 436.118 255.531 448.587 255.531C455.688 255.531 461.595 256.328 466.305 257.922C471.016 259.516 474.708 261.695 477.38 264.461C480.075 267.203 481.915 270.367 482.899 273.953H460.259C457.891 270.695 454.001 269.066 448.587 269.066C443.477 269.066 439.716 270.531 437.302 273.461C435.38 275.828 434.419 278.617 434.419 281.828C434.419 285.039 435.38 287.816 437.302 290.16C439.716 293.09 443.477 294.555 448.587 294.555C452.712 294.555 455.805 294.203 457.868 293.5C459.954 292.773 461.477 291.836 462.438 290.688H454.177V281.828H482.899V307.035H474.11L472.317 302.148C466.716 306.109 458.805 308.09 448.587 308.09ZM546.328 307H485.578V256.551H543.551V269.031H506.742V276.941H537.855V286.645H506.742V294.52H546.328V307ZM643.472 307H622.308V274.832L603.394 307H587.609L568.73 274.832V307H547.566V256.551H572.702L595.519 292.586L618.3 256.551H643.472V307ZM708.272 307H647.522V256.551H705.495V269.031H668.686V276.941H699.799V286.645H668.686V294.52H708.272V307ZM784.357 307H759.185L730.673 272.863V307H709.509V256.551H734.681L763.193 290.512V256.551H784.357V307ZM825.848 307H804.684V269.031H784.927V256.551H845.606V269.031H825.848V307ZM114.328 391.09C107.508 391.09 102.012 390.363 97.8398 388.91C93.668 387.434 90.4922 385.418 88.3125 382.863C86.1328 380.285 84.668 377.32 83.918 373.969H106.383C108.047 376.359 110.695 377.555 114.328 377.555C117.961 377.555 120.609 376.359 122.273 373.969C122.414 373.734 122.484 373.523 122.484 373.336C122.484 372.703 121.641 372.234 119.953 371.93C118.289 371.602 115.793 371.355 112.465 371.191C108.27 371.004 103.863 370.559 99.2461 369.855C88.957 368.262 83.8125 364.125 83.8125 357.445C83.8125 356.883 83.8477 356.285 83.918 355.652C84.668 352.301 86.1328 349.348 88.3125 346.793C90.4922 344.215 93.668 342.199 97.8398 340.746C102.012 339.27 107.508 338.531 114.328 338.531C121.148 338.531 126.645 339.27 130.816 340.746C134.988 342.199 138.164 344.215 140.344 346.793C142.523 349.348 143.988 352.301 144.738 355.652H122.273C120.609 353.262 117.961 352.066 114.328 352.066C110.695 352.066 108.047 353.262 106.383 355.652C106.266 355.84 106.207 356.016 106.207 356.18C106.207 356.742 107.004 357.164 108.598 357.445C110.215 357.703 112.582 357.926 115.699 358.113C118.84 358.301 122.18 358.605 125.719 359.027C129.258 359.449 132.562 360.188 135.633 361.242C138.727 362.273 141.141 363.809 142.875 365.848C144.234 367.418 144.914 369.41 144.914 371.824C144.914 372.504 144.855 373.219 144.738 373.969C143.988 377.32 142.523 380.285 140.344 382.863C138.164 385.418 134.988 387.434 130.816 388.91C126.645 390.363 121.148 391.09 114.328 391.09ZM185.527 390H164.362V366.094L136.835 339.551H160.284L174.945 354.633L189.57 339.551H213.019L185.527 366.094V390ZM235.491 391.09C228.67 391.09 223.174 390.363 219.002 388.91C214.83 387.434 211.655 385.418 209.475 382.863C207.295 380.285 205.83 377.32 205.08 373.969H227.545C229.209 376.359 231.858 377.555 235.491 377.555C239.123 377.555 241.772 376.359 243.436 373.969C243.577 373.734 243.647 373.523 243.647 373.336C243.647 372.703 242.803 372.234 241.116 371.93C239.452 371.602 236.955 371.355 233.627 371.191C229.432 371.004 225.026 370.559 220.409 369.855C210.12 368.262 204.975 364.125 204.975 357.445C204.975 356.883 205.01 356.285 205.08 355.652C205.83 352.301 207.295 349.348 209.475 346.793C211.655 344.215 214.83 342.199 219.002 340.746C223.174 339.27 228.67 338.531 235.491 338.531C242.311 338.531 247.807 339.27 251.979 340.746C256.151 342.199 259.327 344.215 261.506 346.793C263.686 349.348 265.151 352.301 265.901 355.652H243.436C241.772 353.262 239.123 352.066 235.491 352.066C231.858 352.066 229.209 353.262 227.545 355.652C227.428 355.84 227.37 356.016 227.37 356.18C227.37 356.742 228.166 357.164 229.76 357.445C231.377 357.703 233.745 357.926 236.862 358.113C240.002 358.301 243.342 358.605 246.881 359.027C250.42 359.449 253.725 360.188 256.795 361.242C259.889 362.273 262.303 363.809 264.037 365.848C265.397 367.418 266.077 369.41 266.077 371.824C266.077 372.504 266.018 373.219 265.901 373.969C265.151 377.32 263.686 380.285 261.506 382.863C259.327 385.418 256.151 387.434 251.979 388.91C247.807 390.363 242.311 391.09 235.491 391.09ZM304.72 390H283.556V352.031H263.798V339.551H324.478V352.031H304.72V390ZM385.762 390H325.012V339.551H382.985V352.031H346.177V359.941H377.29V369.645H346.177V377.52H385.762V390ZM482.906 390H461.742V357.832L442.828 390H427.043L408.164 357.832V390H387V339.551H412.137L434.953 375.586L457.734 339.551H482.906V390Z" fill="#05038D"/>
</g>
<defs>
<clipPath id="clip0_40_1894">
<rect width="1197" height="1000" fill="white"/>
</clipPath>
<pattern id="pattern0_40_1894" patternUnits="userSpaceOnUse" patternTransform="matrix(884 0 0 419 81 461)" preserveAspectRatio="none" viewBox="0 0 884 419" width="1" height="1">
<g id="pattern0_40_1894_inner">
<path d="M30.4828 0H0V14.4483H30.4828V0Z" fill="#05038D"/>
<path d="M60.9655 0H30.4828V14.4483H60.9655V0Z" fill="#05038D"/>
<path d="M91.4483 0H60.9655V14.4483H91.4483V0Z" fill="#05038D"/>
<path d="M121.931 0H91.4483V14.4483H121.931V0Z" fill="#05038D"/>
<path d="M152.414 0H121.931V14.4483H152.414V0Z" fill="#05038D"/>
<path d="M182.897 0H152.414V14.4483H182.897V0Z" fill="#05038D"/>
<path d="M213.379 0H182.897V14.4483H213.379V0Z" fill="#05038D"/>
<path d="M274.345 0H243.862V14.4483H274.345V0Z" fill="#05038D"/>
<path d="M304.828 0H274.345V14.4483H304.828V0Z" fill="#05038D"/>
<path d="M335.31 0H304.828V14.4483H335.31V0Z" fill="#05038D"/>
<path d="M365.793 0H335.31V14.4483H365.793V0Z" fill="#05038D"/>
<path d="M426.759 0H396.276V14.4483H426.759V0Z" fill="#05038D"/>
<path d="M487.724 0H457.241V14.4483H487.724V0Z" fill="#05038D"/>
<path d="M579.172 0H548.69V14.4483H579.172V0Z" fill="#05038D"/>
<path d="M640.138 0H609.655V14.4483H640.138V0Z" fill="#05038D"/>
<path d="M701.103 0H670.621V14.4483H701.103V0Z" fill="#05038D"/>
<path d="M731.586 0H701.103V14.4483H731.586V0Z" fill="#05038D"/>
<path d="M762.069 0H731.586V14.4483H762.069V0Z" fill="#05038D"/>
<path d="M792.552 0H762.069V14.4483H792.552V0Z" fill="#05038D"/>
<path d="M823.034 0H792.552V14.4483H823.034V0Z" fill="#05038D"/>
<path d="M853.517 0H823.034V14.4483H853.517V0Z" fill="#05038D"/>
<path d="M884 0H853.517V14.4483H884V0Z" fill="#05038D"/>
<path d="M30.4828 14.4483H0V28.8966H30.4828V14.4483Z" fill="#05038D"/>
<path d="M213.379 14.4483H182.897V28.8966H213.379V14.4483Z" fill="#05038D"/>
<path d="M335.31 14.4483H304.828V28.8966H335.31V14.4483Z" fill="#05038D"/>
<path d="M426.759 14.4483H396.276V28.8966H426.759V14.4483Z" fill="#05038D"/>
<path d="M487.724 14.4483H457.241V28.8966H487.724V14.4483Z" fill="#05038D"/>
<path d="M579.172 14.4483H548.69V28.8966H579.172V14.4483Z" fill="#05038D"/>
<path d="M640.138 14.4483H609.655V28.8966H640.138V14.4483Z" fill="#05038D"/>
<path d="M701.103 14.4483H670.621V28.8966H701.103V14.4483Z" fill="#05038D"/>
<path d="M884 14.4483H853.517V28.8966H884V14.4483Z" fill="#05038D"/>
<path d="M30.4828 28.8966H0V43.3448H30.4828V28.8966Z" fill="#05038D"/>
<path d="M91.4483 28.8966H60.9655V43.3448H91.4483V28.8966Z" fill="#05038D"/>
<path d="M121.931 28.8966H91.4483V43.3448H121.931V28.8966Z" fill="#05038D"/>
<path d="M152.414 28.8966H121.931V43.3448H152.414V28.8966Z" fill="#05038D"/>
<path d="M213.379 28.8966H182.897V43.3448H213.379V28.8966Z" fill="#05038D"/>
<path d="M274.345 28.8966H243.862V43.3448H274.345V28.8966Z" fill="#05038D"/>
<path d="M304.828 28.8966H274.345V43.3448H304.828V28.8966Z" fill="#05038D"/>
<path d="M335.31 28.8966H304.828V43.3448H335.31V28.8966Z" fill="#05038D"/>
<path d="M365.793 28.8966H335.31V43.3448H365.793V28.8966Z" fill="#05038D"/>
<path d="M396.276 28.8966H365.793V43.3448H396.276V28.8966Z" fill="#05038D"/>
<path d="M426.759 28.8966H396.276V43.3448H426.759V28.8966Z" fill="#05038D"/>
<path d="M457.241 28.8966H426.759V43.3448H457.241V28.8966Z" fill="#05038D"/>
<path d="M487.724 28.8966H457.241V43.3448H487.724V28.8966Z" fill="#05038D"/>
<path d="M609.655 28.8966H579.172V43.3448H609.655V28.8966Z" fill="#05038D"/>
<path d="M640.138 28.8966H609.655V43.3448H640.138V28.8966Z" fill="#05038D"/>
<path d="M701.103 28.8966H670.621V43.3448H701.103V28.8966Z" fill="#05038D"/>
<path d="M762.069 28.8966H731.586V43.3448H762.069V28.8966Z" fill="#05038D"/>
<path d="M792.552 28.8966H762.069V43.3448H792.552V28.8966Z" fill="#05038D"/>
<path d="M823.034 28.8966H792.552V43.3448H823.034V28.8966Z" fill="#05038D"/>
<path d="M884 28.8966H853.517V43.3448H884V28.8966Z" fill="#05038D"/>
<path d="M30.4828 43.3448H0V57.7931H30.4828V43.3448Z" fill="#05038D"/>
<path d="M91.4483 43.3448H60.9655V57.7931H91.4483V43.3448Z" fill="#05038D"/>
<path d="M121.931 43.3448H91.4483V57.7931H121.931V43.3448Z" fill="#05038D"/>
<path d="M152.414 43.3448H121.931V57.7931H152.414V43.3448Z" fill="#05038D"/>
<path d="M213.379 43.3448H182.897V57.7931H213.379V43.3448Z" fill="#05038D"/>
<path d="M335.31 43.3448H304.828V57.7931H335.31V43.3448Z" fill="#05038D"/>
<path d="M426.759 43.3448H396.276V57.7931H426.759V43.3448Z" fill="#05038D"/>
<path d="M487.724 43.3448H457.241V57.7931H487.724V43.3448Z" fill="#05038D"/>
<path d="M518.207 43.3448H487.724V57.7931H518.207V43.3448Z" fill="#05038D"/>
<path d="M548.69 43.3448H518.207V57.7931H548.69V43.3448Z" fill="#05038D"/>
<path d="M579.172 43.3448H548.69V57.7931H579.172V43.3448Z" fill="#05038D"/>
<path d="M609.655 43.3448H579.172V57.7931H609.655V43.3448Z" fill="#05038D"/>
<path d="M701.103 43.3448H670.621V57.7931H701.103V43.3448Z" fill="#05038D"/>
<path d="M762.069 43.3448H731.586V57.7931H762.069V43.3448Z" fill="#05038D"/>
<path d="M792.552 43.3448H762.069V57.7931H792.552V43.3448Z" fill="#05038D"/>
<path d="M823.034 43.3448H792.552V57.7931H823.034V43.3448Z" fill="#05038D"/>
<path d="M884 43.3448H853.517V57.7931H884V43.3448Z" fill="#05038D"/>
<path d="M30.4828 57.7931H0V72.2414H30.4828V57.7931Z" fill="#05038D"/>
<path d="M91.4483 57.7931H60.9655V72.2414H91.4483V57.7931Z" fill="#05038D"/>
<path d="M121.931 57.7931H91.4483V72.2414H121.931V57.7931Z" fill="#05038D"/>
<path d="M152.414 57.7931H121.931V72.2414H152.414V57.7931Z" fill="#05038D"/>
<path d="M213.379 57.7931H182.897V72.2414H213.379V57.7931Z" fill="#05038D"/>
<path d="M304.828 57.7931H274.345V72.2414H304.828V57.7931Z" fill="#05038D"/>
<path d="M365.793 57.7931H335.31V72.2414H365.793V57.7931Z" fill="#05038D"/>
<path d="M426.759 57.7931H396.276V72.2414H426.759V57.7931Z" fill="#05038D"/>
<path d="M457.241 57.7931H426.759V72.2414H457.241V57.7931Z" fill="#05038D"/>
<path d="M487.724 57.7931H457.241V72.2414H487.724V57.7931Z" fill="#05038D"/>
<path d="M518.207 57.7931H487.724V72.2414H518.207V57.7931Z" fill="#05038D"/>
<path d="M548.69 57.7931H518.207V72.2414H548.69V57.7931Z" fill="#05038D"/>
<path d="M579.172 57.7931H548.69V72.2414H579.172V57.7931Z" fill="#05038D"/>
<path d="M640.138 57.7931H609.655V72.2414H640.138V57.7931Z" fill="#05038D"/>
<path d="M701.103 57.7931H670.621V72.2414H701.103V57.7931Z" fill="#05038D"/>
<path d="M762.069 57.7931H731.586V72.2414H762.069V57.7931Z" fill="#05038D"/>
<path d="M792.552 57.7931H762.069V72.2414H792.552V57.7931Z" fill="#05038D"/>
<path d="M823.034 57.7931H792.552V72.2414H823.034V57.7931Z" fill="#05038D"/>
<path d="M884 57.7931H853.517V72.2414H884V57.7931Z" fill="#05038D"/>
<path d="M30.4828 72.2414H0V86.6897H30.4828V72.2414Z" fill="#05038D"/>
<path d="M213.379 72.2414H182.897V86.6897H213.379V72.2414Z" fill="#05038D"/>
<path d="M304.828 72.2414H274.345V86.6897H304.828V72.2414Z" fill="#05038D"/>
<path d="M335.31 72.2414H304.828V86.6897H335.31V72.2414Z" fill="#05038D"/>
<path d="M365.793 72.2414H335.31V86.6897H365.793V72.2414Z" fill="#05038D"/>
<path d="M396.276 72.2414H365.793V86.6897H396.276V72.2414Z" fill="#05038D"/>
<path d="M426.759 72.2414H396.276V86.6897H426.759V72.2414Z" fill="#05038D"/>
<path d="M487.724 72.2414H457.241V86.6897H487.724V72.2414Z" fill="#05038D"/>
<path d="M518.207 72.2414H487.724V86.6897H518.207V72.2414Z" fill="#05038D"/>
<path d="M579.172 72.2414H548.69V86.6897H579.172V72.2414Z" fill="#05038D"/>
<path d="M609.655 72.2414H579.172V86.6897H609.655V72.2414Z" fill="#05038D"/>
<path d="M701.103 72.2414H670.621V86.6897H701.103V72.2414Z" fill="#05038D"/>
<path d="M884 72.2414H853.517V86.6897H884V72.2414Z" fill="#05038D"/>
<path d="M30.4828 86.6897H0V101.138H30.4828V86.6897Z" fill="#05038D"/>
<path d="M60.9655 86.6897H30.4828V101.138H60.9655V86.6897Z" fill="#05038D"/>
<path d="M91.4483 86.6897H60.9655V101.138H91.4483V86.6897Z" fill="#05038D"/>
<path d="M121.931 86.6897H91.4483V101.138H121.931V86.6897Z" fill="#05038D"/>
<path d="M152.414 86.6897H121.931V101.138H152.414V86.6897Z" fill="#05038D"/>
<path d="M182.897 86.6897H152.414V101.138H182.897V86.6897Z" fill="#05038D"/>
<path d="M213.379 86.6897H182.897V101.138H213.379V86.6897Z" fill="#05038D"/>
<path d="M274.345 86.6897H243.862V101.138H274.345V86.6897Z" fill="#05038D"/>
<path d="M335.31 86.6897H304.828V101.138H335.31V86.6897Z" fill="#05038D"/>
<path d="M396.276 86.6897H365.793V101.138H396.276V86.6897Z" fill="#05038D"/>
<path d="M457.241 86.6897H426.759V101.138H457.241V86.6897Z" fill="#05038D"/>
<path d="M518.207 86.6897H487.724V101.138H518.207V86.6897Z" fill="#05038D"/>
<path d="M579.172 86.6897H548.69V101.138H579.172V86.6897Z" fill="#05038D"/>
<path d="M640.138 86.6897H609.655V101.138H640.138V86.6897Z" fill="#05038D"/>
<path d="M701.103 86.6897H670.621V101.138H701.103V86.6897Z" fill="#05038D"/>
<path d="M731.586 86.6897H701.103V101.138H731.586V86.6897Z" fill="#05038D"/>
<path d="M762.069 86.6897H731.586V101.138H762.069V86.6897Z" fill="#05038D"/>
<path d="M792.552 86.6897H762.069V101.138H792.552V86.6897Z" fill="#05038D"/>
<path d="M823.034 86.6897H792.552V101.138H823.034V86.6897Z" fill="#05038D"/>
<path d="M853.517 86.6897H823.034V101.138H853.517V86.6897Z" fill="#05038D"/>
<path d="M884 86.6897H853.517V101.138H884V86.6897Z" fill="#05038D"/>
<path d="M274.345 101.138H243.862V115.586H274.345V101.138Z" fill="#05038D"/>
<path d="M396.276 101.138H365.793V115.586H396.276V101.138Z" fill="#05038D"/>
<path d="M426.759 101.138H396.276V115.586H426.759V101.138Z" fill="#05038D"/>
<path d="M487.724 101.138H457.241V115.586H487.724V101.138Z" fill="#05038D"/>
<path d="M548.69 101.138H518.207V115.586H548.69V101.138Z" fill="#05038D"/>
<path d="M609.655 101.138H579.172V115.586H609.655V101.138Z" fill="#05038D"/>
<path d="M640.138 101.138H609.655V115.586H640.138V101.138Z" fill="#05038D"/>
<path d="M30.4828 115.586H0V130.034H30.4828V115.586Z" fill="#05038D"/>
<path d="M91.4483 115.586H60.9655V130.034H91.4483V115.586Z" fill="#05038D"/>
<path d="M182.897 115.586H152.414V130.034H182.897V115.586Z" fill="#05038D"/>
<path d="M213.379 115.586H182.897V130.034H213.379V115.586Z" fill="#05038D"/>
<path d="M304.828 115.586H274.345V130.034H304.828V115.586Z" fill="#05038D"/>
<path d="M365.793 115.586H335.31V130.034H365.793V115.586Z" fill="#05038D"/>
<path d="M396.276 115.586H365.793V130.034H396.276V115.586Z" fill="#05038D"/>
<path d="M457.241 115.586H426.759V130.034H457.241V115.586Z" fill="#05038D"/>
<path d="M518.207 115.586H487.724V130.034H518.207V115.586Z" fill="#05038D"/>
<path d="M548.69 115.586H518.207V130.034H548.69V115.586Z" fill="#05038D"/>
<path d="M579.172 115.586H548.69V130.034H579.172V115.586Z" fill="#05038D"/>
<path d="M609.655 115.586H579.172V130.034H609.655V115.586Z" fill="#05038D"/>
<path d="M670.621 115.586H640.138V130.034H670.621V115.586Z" fill="#05038D"/>
<path d="M701.103 115.586H670.621V130.034H701.103V115.586Z" fill="#05038D"/>
<path d="M823.034 115.586H792.552V130.034H823.034V115.586Z" fill="#05038D"/>
<path d="M884 115.586H853.517V130.034H884V115.586Z" fill="#05038D"/>
<path d="M30.4828 130.034H0V144.483H30.4828V130.034Z" fill="#05038D"/>
<path d="M121.931 130.034H91.4483V144.483H121.931V130.034Z" fill="#05038D"/>
<path d="M243.862 130.034H213.379V144.483H243.862V130.034Z" fill="#05038D"/>
<path d="M274.345 130.034H243.862V144.483H274.345V130.034Z" fill="#05038D"/>
<path d="M304.828 130.034H274.345V144.483H304.828V130.034Z" fill="#05038D"/>
<path d="M365.793 130.034H335.31V144.483H365.793V130.034Z" fill="#05038D"/>
<path d="M579.172 130.034H548.69V144.483H579.172V130.034Z" fill="#05038D"/>
<path d="M609.655 130.034H579.172V144.483H609.655V130.034Z" fill="#05038D"/>
<path d="M640.138 130.034H609.655V144.483H640.138V130.034Z" fill="#05038D"/>
<path d="M701.103 130.034H670.621V144.483H701.103V130.034Z" fill="#05038D"/>
<path d="M731.586 130.034H701.103V144.483H731.586V130.034Z" fill="#05038D"/>
<path d="M762.069 130.034H731.586V144.483H762.069V130.034Z" fill="#05038D"/>
<path d="M792.552 130.034H762.069V144.483H792.552V130.034Z" fill="#05038D"/>
<path d="M853.517 130.034H823.034V144.483H853.517V130.034Z" fill="#05038D"/>
<path d="M884 130.034H853.517V144.483H884V130.034Z" fill="#05038D"/>
<path d="M60.9655 144.483H30.4828V158.931H60.9655V144.483Z" fill="#05038D"/>
<path d="M91.4483 144.483H60.9655V158.931H91.4483V144.483Z" fill="#05038D"/>
<path d="M121.931 144.483H91.4483V158.931H121.931V144.483Z" fill="#05038D"/>
<path d="M182.897 144.483H152.414V158.931H182.897V144.483Z" fill="#05038D"/>
<path d="M213.379 144.483H182.897V158.931H213.379V144.483Z" fill="#05038D"/>
<path d="M243.862 144.483H213.379V158.931H243.862V144.483Z" fill="#05038D"/>
<path d="M365.793 144.483H335.31V158.931H365.793V144.483Z" fill="#05038D"/>
<path d="M396.276 144.483H365.793V158.931H396.276V144.483Z" fill="#05038D"/>
<path d="M426.759 144.483H396.276V158.931H426.759V144.483Z" fill="#05038D"/>
<path d="M518.207 144.483H487.724V158.931H518.207V144.483Z" fill="#05038D"/>
<path d="M548.69 144.483H518.207V158.931H548.69V144.483Z" fill="#05038D"/>
<path d="M609.655 144.483H579.172V158.931H609.655V144.483Z" fill="#05038D"/>
<path d="M640.138 144.483H609.655V158.931H640.138V144.483Z" fill="#05038D"/>
<path d="M701.103 144.483H670.621V158.931H701.103V144.483Z" fill="#05038D"/>
<path d="M823.034 144.483H792.552V158.931H823.034V144.483Z" fill="#05038D"/>
<path d="M243.862 158.931H213.379V173.379H243.862V158.931Z" fill="#05038D"/>
<path d="M304.828 158.931H274.345V173.379H304.828V158.931Z" fill="#05038D"/>
<path d="M426.759 158.931H396.276V173.379H426.759V158.931Z" fill="#05038D"/>
<path d="M487.724 158.931H457.241V173.379H487.724V158.931Z" fill="#05038D"/>
<path d="M518.207 158.931H487.724V173.379H518.207V158.931Z" fill="#05038D"/>
<path d="M548.69 158.931H518.207V173.379H548.69V158.931Z" fill="#05038D"/>
<path d="M609.655 158.931H579.172V173.379H609.655V158.931Z" fill="#05038D"/>
<path d="M701.103 158.931H670.621V173.379H701.103V158.931Z" fill="#05038D"/>
<path d="M762.069 158.931H731.586V173.379H762.069V158.931Z" fill="#05038D"/>
<path d="M853.517 158.931H823.034V173.379H853.517V158.931Z" fill="#05038D"/>
<path d="M884 158.931H853.517V173.379H884V158.931Z" fill="#05038D"/>
<path d="M30.4828 173.379H0V187.828H30.4828V173.379Z" fill="#05038D"/>
<path d="M60.9655 173.379H30.4828V187.828H60.9655V173.379Z" fill="#05038D"/>
<path d="M121.931 173.379H91.4483V187.828H121.931V173.379Z" fill="#05038D"/>
<path d="M152.414 173.379H121.931V187.828H152.414V173.379Z" fill="#05038D"/>
<path d="M182.897 173.379H152.414V187.828H182.897V173.379Z" fill="#05038D"/>
<path d="M213.379 173.379H182.897V187.828H213.379V173.379Z" fill="#05038D"/>
<path d="M274.345 173.379H243.862V187.828H274.345V173.379Z" fill="#05038D"/>
<path d="M304.828 173.379H274.345V187.828H304.828V173.379Z" fill="#05038D"/>
<path d="M426.759 173.379H396.276V187.828H426.759V173.379Z" fill="#05038D"/>
<path d="M457.241 173.379H426.759V187.828H457.241V173.379Z" fill="#05038D"/>
<path d="M487.724 173.379H457.241V187.828H487.724V173.379Z" fill="#05038D"/>
<path d="M731.586 173.379H701.103V187.828H731.586V173.379Z" fill="#05038D"/>
<path d="M762.069 173.379H731.586V187.828H762.069V173.379Z" fill="#05038D"/>
<path d="M853.517 173.379H823.034V187.828H853.517V173.379Z" fill="#05038D"/>
<path d="M30.4828 187.828H0V202.276H30.4828V187.828Z" fill="#05038D"/>
<path d="M91.4483 187.828H60.9655V202.276H91.4483V187.828Z" fill="#05038D"/>
<path d="M182.897 187.828H152.414V202.276H182.897V187.828Z" fill="#05038D"/>
<path d="M243.862 187.828H213.379V202.276H243.862V187.828Z" fill="#05038D"/>
<path d="M274.345 187.828H243.862V202.276H274.345V187.828Z" fill="#05038D"/>
<path d="M335.31 187.828H304.828V202.276H335.31V187.828Z" fill="#05038D"/>
<path d="M396.276 187.828H365.793V202.276H396.276V187.828Z" fill="#05038D"/>
<path d="M426.759 187.828H396.276V202.276H426.759V187.828Z" fill="#05038D"/>
<path d="M487.724 187.828H457.241V202.276H487.724V187.828Z" fill="#05038D"/>
<path d="M518.207 187.828H487.724V202.276H518.207V187.828Z" fill="#05038D"/>
<path d="M579.172 187.828H548.69V202.276H579.172V187.828Z" fill="#05038D"/>
<path d="M640.138 187.828H609.655V202.276H640.138V187.828Z" fill="#05038D"/>
<path d="M670.621 187.828H640.138V202.276H670.621V187.828Z" fill="#05038D"/>
<path d="M731.586 187.828H701.103V202.276H731.586V187.828Z" fill="#05038D"/>
<path d="M762.069 187.828H731.586V202.276H762.069V187.828Z" fill="#05038D"/>
<path d="M792.552 187.828H762.069V202.276H792.552V187.828Z" fill="#05038D"/>
<path d="M823.034 187.828H792.552V202.276H823.034V187.828Z" fill="#05038D"/>
<path d="M884 187.828H853.517V202.276H884V187.828Z" fill="#05038D"/>
<path d="M30.4828 202.276H0V216.724H30.4828V202.276Z" fill="#05038D"/>
<path d="M182.897 202.276H152.414V216.724H182.897V202.276Z" fill="#05038D"/>
<path d="M213.379 202.276H182.897V216.724H213.379V202.276Z" fill="#05038D"/>
<path d="M335.31 202.276H304.828V216.724H335.31V202.276Z" fill="#05038D"/>
<path d="M365.793 202.276H335.31V216.724H365.793V202.276Z" fill="#05038D"/>
<path d="M396.276 202.276H365.793V216.724H396.276V202.276Z" fill="#05038D"/>
<path d="M426.759 202.276H396.276V216.724H426.759V202.276Z" fill="#05038D"/>
<path d="M579.172 202.276H548.69V216.724H579.172V202.276Z" fill="#05038D"/>
<path d="M609.655 202.276H579.172V216.724H609.655V202.276Z" fill="#05038D"/>
<path d="M640.138 202.276H609.655V216.724H640.138V202.276Z" fill="#05038D"/>
<path d="M670.621 202.276H640.138V216.724H670.621V202.276Z" fill="#05038D"/>
<path d="M30.4828 216.724H0V231.172H30.4828V216.724Z" fill="#05038D"/>
<path d="M60.9655 216.724H30.4828V231.172H60.9655V216.724Z" fill="#05038D"/>
<path d="M121.931 216.724H91.4483V231.172H121.931V216.724Z" fill="#05038D"/>
<path d="M152.414 216.724H121.931V231.172H152.414V216.724Z" fill="#05038D"/>
<path d="M274.345 216.724H243.862V231.172H274.345V216.724Z" fill="#05038D"/>
<path d="M365.793 216.724H335.31V231.172H365.793V216.724Z" fill="#05038D"/>
<path d="M457.241 216.724H426.759V231.172H457.241V216.724Z" fill="#05038D"/>
<path d="M518.207 216.724H487.724V231.172H518.207V216.724Z" fill="#05038D"/>
<path d="M609.655 216.724H579.172V231.172H609.655V216.724Z" fill="#05038D"/>
<path d="M701.103 216.724H670.621V231.172H701.103V216.724Z" fill="#05038D"/>
<path d="M762.069 216.724H731.586V231.172H762.069V216.724Z" fill="#05038D"/>
<path d="M853.517 216.724H823.034V231.172H853.517V216.724Z" fill="#05038D"/>
<path d="M121.931 231.172H91.4483V245.621H121.931V231.172Z" fill="#05038D"/>
<path d="M152.414 231.172H121.931V245.621H152.414V231.172Z" fill="#05038D"/>
<path d="M182.897 231.172H152.414V245.621H182.897V231.172Z" fill="#05038D"/>
<path d="M213.379 231.172H182.897V245.621H213.379V231.172Z" fill="#05038D"/>
<path d="M274.345 231.172H243.862V245.621H274.345V231.172Z" fill="#05038D"/>
<path d="M304.828 231.172H274.345V245.621H304.828V231.172Z" fill="#05038D"/>
<path d="M335.31 231.172H304.828V245.621H335.31V231.172Z" fill="#05038D"/>
<path d="M365.793 231.172H335.31V245.621H365.793V231.172Z" fill="#05038D"/>
<path d="M518.207 231.172H487.724V245.621H518.207V231.172Z" fill="#05038D"/>
<path d="M548.69 231.172H518.207V245.621H548.69V231.172Z" fill="#05038D"/>
<path d="M579.172 231.172H548.69V245.621H579.172V231.172Z" fill="#05038D"/>
<path d="M609.655 231.172H579.172V245.621H609.655V231.172Z" fill="#05038D"/>
<path d="M762.069 231.172H731.586V245.621H762.069V231.172Z" fill="#05038D"/>
<path d="M792.552 231.172H762.069V245.621H792.552V231.172Z" fill="#05038D"/>
<path d="M823.034 231.172H792.552V245.621H823.034V231.172Z" fill="#05038D"/>
<path d="M853.517 231.172H823.034V245.621H853.517V231.172Z" fill="#05038D"/>
<path d="M30.4828 245.621H0V260.069H30.4828V245.621Z" fill="#05038D"/>
<path d="M60.9655 245.621H30.4828V260.069H60.9655V245.621Z" fill="#05038D"/>
<path d="M91.4483 245.621H60.9655V260.069H91.4483V245.621Z" fill="#05038D"/>
<path d="M121.931 245.621H91.4483V260.069H121.931V245.621Z" fill="#05038D"/>
<path d="M152.414 245.621H121.931V260.069H152.414V245.621Z" fill="#05038D"/>
<path d="M335.31 245.621H304.828V260.069H335.31V245.621Z" fill="#05038D"/>
<path d="M426.759 245.621H396.276V260.069H426.759V245.621Z" fill="#05038D"/>
<path d="M457.241 245.621H426.759V260.069H457.241V245.621Z" fill="#05038D"/>
<path d="M518.207 245.621H487.724V260.069H518.207V245.621Z" fill="#05038D"/>
<path d="M548.69 245.621H518.207V260.069H548.69V245.621Z" fill="#05038D"/>
<path d="M640.138 245.621H609.655V260.069H640.138V245.621Z" fill="#05038D"/>
<path d="M670.621 245.621H640.138V260.069H670.621V245.621Z" fill="#05038D"/>
<path d="M731.586 245.621H701.103V260.069H731.586V245.621Z" fill="#05038D"/>
<path d="M762.069 245.621H731.586V260.069H762.069V245.621Z" fill="#05038D"/>
<path d="M823.034 245.621H792.552V260.069H823.034V245.621Z" fill="#05038D"/>
<path d="M884 245.621H853.517V260.069H884V245.621Z" fill="#05038D"/>
<path d="M121.931 260.069H91.4483V274.517H121.931V260.069Z" fill="#05038D"/>
<path d="M182.897 260.069H152.414V274.517H182.897V260.069Z" fill="#05038D"/>
<path d="M213.379 260.069H182.897V274.517H213.379V260.069Z" fill="#05038D"/>
<path d="M365.793 260.069H335.31V274.517H365.793V260.069Z" fill="#05038D"/>
<path d="M487.724 260.069H457.241V274.517H487.724V260.069Z" fill="#05038D"/>
<path d="M518.207 260.069H487.724V274.517H518.207V260.069Z" fill="#05038D"/>
<path d="M579.172 260.069H548.69V274.517H579.172V260.069Z" fill="#05038D"/>
<path d="M640.138 260.069H609.655V274.517H640.138V260.069Z" fill="#05038D"/>
<path d="M823.034 260.069H792.552V274.517H823.034V260.069Z" fill="#05038D"/>
<path d="M853.517 260.069H823.034V274.517H853.517V260.069Z" fill="#05038D"/>
<path d="M884 260.069H853.517V274.517H884V260.069Z" fill="#05038D"/>
<path d="M91.4483 274.517H60.9655V288.966H91.4483V274.517Z" fill="#05038D"/>
<path d="M121.931 274.517H91.4483V288.966H121.931V274.517Z" fill="#05038D"/>
<path d="M243.862 274.517H213.379V288.966H243.862V274.517Z" fill="#05038D"/>
<path d="M274.345 274.517H243.862V288.966H274.345V274.517Z" fill="#05038D"/>
<path d="M335.31 274.517H304.828V288.966H335.31V274.517Z" fill="#05038D"/>
<path d="M396.276 274.517H365.793V288.966H396.276V274.517Z" fill="#05038D"/>
<path d="M426.759 274.517H396.276V288.966H426.759V274.517Z" fill="#05038D"/>
<path d="M457.241 274.517H426.759V288.966H457.241V274.517Z" fill="#05038D"/>
<path d="M518.207 274.517H487.724V288.966H518.207V274.517Z" fill="#05038D"/>
<path d="M548.69 274.517H518.207V288.966H548.69V274.517Z" fill="#05038D"/>
<path d="M579.172 274.517H548.69V288.966H579.172V274.517Z" fill="#05038D"/>
<path d="M609.655 274.517H579.172V288.966H609.655V274.517Z" fill="#05038D"/>
<path d="M731.586 274.517H701.103V288.966H731.586V274.517Z" fill="#05038D"/>
<path d="M762.069 274.517H731.586V288.966H762.069V274.517Z" fill="#05038D"/>
<path d="M792.552 274.517H762.069V288.966H792.552V274.517Z" fill="#05038D"/>
<path d="M60.9655 288.966H30.4828V303.414H60.9655V288.966Z" fill="#05038D"/>
<path d="M91.4483 288.966H60.9655V303.414H91.4483V288.966Z" fill="#05038D"/>
<path d="M121.931 288.966H91.4483V303.414H121.931V288.966Z" fill="#05038D"/>
<path d="M182.897 288.966H152.414V303.414H182.897V288.966Z" fill="#05038D"/>
<path d="M213.379 288.966H182.897V303.414H213.379V288.966Z" fill="#05038D"/>
<path d="M304.828 288.966H274.345V303.414H304.828V288.966Z" fill="#05038D"/>
<path d="M335.31 288.966H304.828V303.414H335.31V288.966Z" fill="#05038D"/>
<path d="M396.276 288.966H365.793V303.414H396.276V288.966Z" fill="#05038D"/>
<path d="M457.241 288.966H426.759V303.414H457.241V288.966Z" fill="#05038D"/>
<path d="M487.724 288.966H457.241V303.414H487.724V288.966Z" fill="#05038D"/>
<path d="M548.69 288.966H518.207V303.414H548.69V288.966Z" fill="#05038D"/>
<path d="M579.172 288.966H548.69V303.414H579.172V288.966Z" fill="#05038D"/>
<path d="M609.655 288.966H579.172V303.414H609.655V288.966Z" fill="#05038D"/>
<path d="M640.138 288.966H609.655V303.414H640.138V288.966Z" fill="#05038D"/>
<path d="M670.621 288.966H640.138V303.414H670.621V288.966Z" fill="#05038D"/>
<path d="M701.103 288.966H670.621V303.414H701.103V288.966Z" fill="#05038D"/>
<path d="M731.586 288.966H701.103V303.414H731.586V288.966Z" fill="#05038D"/>
<path d="M762.069 288.966H731.586V303.414H762.069V288.966Z" fill="#05038D"/>
<path d="M823.034 288.966H792.552V303.414H823.034V288.966Z" fill="#05038D"/>
<path d="M853.517 288.966H823.034V303.414H853.517V288.966Z" fill="#05038D"/>
<path d="M884 288.966H853.517V303.414H884V288.966Z" fill="#05038D"/>
<path d="M335.31 303.414H304.828V317.862H335.31V303.414Z" fill="#05038D"/>
<path d="M365.793 303.414H335.31V317.862H365.793V303.414Z" fill="#05038D"/>
<path d="M487.724 303.414H457.241V317.862H487.724V303.414Z" fill="#05038D"/>
<path d="M609.655 303.414H579.172V317.862H609.655V303.414Z" fill="#05038D"/>
<path d="M640.138 303.414H609.655V317.862H640.138V303.414Z" fill="#05038D"/>
<path d="M762.069 303.414H731.586V317.862H762.069V303.414Z" fill="#05038D"/>
<path d="M792.552 303.414H762.069V317.862H792.552V303.414Z" fill="#05038D"/>
<path d="M823.034 303.414H792.552V317.862H823.034V303.414Z" fill="#05038D"/>
<path d="M853.517 303.414H823.034V317.862H853.517V303.414Z" fill="#05038D"/>
<path d="M30.4828 317.862H0V332.31H30.4828V317.862Z" fill="#05038D"/>
<path d="M60.9655 317.862H30.4828V332.31H60.9655V317.862Z" fill="#05038D"/>
<path d="M91.4483 317.862H60.9655V332.31H91.4483V317.862Z" fill="#05038D"/>
<path d="M121.931 317.862H91.4483V332.31H121.931V317.862Z" fill="#05038D"/>
<path d="M152.414 317.862H121.931V332.31H152.414V317.862Z" fill="#05038D"/>
<path d="M182.897 317.862H152.414V332.31H182.897V317.862Z" fill="#05038D"/>
<path d="M213.379 317.862H182.897V332.31H213.379V317.862Z" fill="#05038D"/>
<path d="M304.828 317.862H274.345V332.31H304.828V317.862Z" fill="#05038D"/>
<path d="M335.31 317.862H304.828V332.31H335.31V317.862Z" fill="#05038D"/>
<path d="M396.276 317.862H365.793V332.31H396.276V317.862Z" fill="#05038D"/>
<path d="M426.759 317.862H396.276V332.31H426.759V317.862Z" fill="#05038D"/>
<path d="M457.241 317.862H426.759V332.31H457.241V317.862Z" fill="#05038D"/>
<path d="M487.724 317.862H457.241V332.31H487.724V317.862Z" fill="#05038D"/>
<path d="M518.207 317.862H487.724V332.31H518.207V317.862Z" fill="#05038D"/>
<path d="M548.69 317.862H518.207V332.31H548.69V317.862Z" fill="#05038D"/>
<path d="M579.172 317.862H548.69V332.31H579.172V317.862Z" fill="#05038D"/>
<path d="M640.138 317.862H609.655V332.31H640.138V317.862Z" fill="#05038D"/>
<path d="M701.103 317.862H670.621V332.31H701.103V317.862Z" fill="#05038D"/>
<path d="M762.069 317.862H731.586V332.31H762.069V317.862Z" fill="#05038D"/>
<path d="M853.517 317.862H823.034V332.31H853.517V317.862Z" fill="#05038D"/>
<path d="M884 317.862H853.517V332.31H884V317.862Z" fill="#05038D"/>
<path d="M30.4828 332.31H0V346.759H30.4828V332.31Z" fill="#05038D"/>
<path d="M213.379 332.31H182.897V346.759H213.379V332.31Z" fill="#05038D"/>
<path d="M274.345 332.31H243.862V346.759H274.345V332.31Z" fill="#05038D"/>
<path d="M304.828 332.31H274.345V346.759H304.828V332.31Z" fill="#05038D"/>
<path d="M335.31 332.31H304.828V346.759H335.31V332.31Z" fill="#05038D"/>
<path d="M365.793 332.31H335.31V346.759H365.793V332.31Z" fill="#05038D"/>
<path d="M396.276 332.31H365.793V346.759H396.276V332.31Z" fill="#05038D"/>
<path d="M426.759 332.31H396.276V346.759H426.759V332.31Z" fill="#05038D"/>
<path d="M518.207 332.31H487.724V346.759H518.207V332.31Z" fill="#05038D"/>
<path d="M548.69 332.31H518.207V346.759H548.69V332.31Z" fill="#05038D"/>
<path d="M609.655 332.31H579.172V346.759H609.655V332.31Z" fill="#05038D"/>
<path d="M640.138 332.31H609.655V346.759H640.138V332.31Z" fill="#05038D"/>
<path d="M762.069 332.31H731.586V346.759H762.069V332.31Z" fill="#05038D"/>
<path d="M884 332.31H853.517V346.759H884V332.31Z" fill="#05038D"/>
<path d="M30.4828 346.759H0V361.207H30.4828V346.759Z" fill="#05038D"/>
<path d="M91.4483 346.759H60.9655V361.207H91.4483V346.759Z" fill="#05038D"/>
<path d="M121.931 346.759H91.4483V361.207H121.931V346.759Z" fill="#05038D"/>
<path d="M152.414 346.759H121.931V361.207H152.414V346.759Z" fill="#05038D"/>
<path d="M213.379 346.759H182.897V361.207H213.379V346.759Z" fill="#05038D"/>
<path d="M365.793 346.759H335.31V361.207H365.793V346.759Z" fill="#05038D"/>
<path d="M457.241 346.759H426.759V361.207H457.241V346.759Z" fill="#05038D"/>
<path d="M579.172 346.759H548.69V361.207H579.172V346.759Z" fill="#05038D"/>
<path d="M609.655 346.759H579.172V361.207H609.655V346.759Z" fill="#05038D"/>
<path d="M640.138 346.759H609.655V361.207H640.138V346.759Z" fill="#05038D"/>
<path d="M670.621 346.759H640.138V361.207H670.621V346.759Z" fill="#05038D"/>
<path d="M701.103 346.759H670.621V361.207H701.103V346.759Z" fill="#05038D"/>
<path d="M731.586 346.759H701.103V361.207H731.586V346.759Z" fill="#05038D"/>
<path d="M762.069 346.759H731.586V361.207H762.069V346.759Z" fill="#05038D"/>
<path d="M823.034 346.759H792.552V361.207H823.034V346.759Z" fill="#05038D"/>
<path d="M884 346.759H853.517V361.207H884V346.759Z" fill="#05038D"/>
<path d="M30.4828 361.207H0V375.655H30.4828V361.207Z" fill="#05038D"/>
<path d="M91.4483 361.207H60.9655V375.655H91.4483V361.207Z" fill="#05038D"/>
<path d="M121.931 361.207H91.4483V375.655H121.931V361.207Z" fill="#05038D"/>
<path d="M152.414 361.207H121.931V375.655H152.414V361.207Z" fill="#05038D"/>
<path d="M213.379 361.207H182.897V375.655H213.379V361.207Z" fill="#05038D"/>
<path d="M365.793 361.207H335.31V375.655H365.793V361.207Z" fill="#05038D"/>
<path d="M396.276 361.207H365.793V375.655H396.276V361.207Z" fill="#05038D"/>
<path d="M426.759 361.207H396.276V375.655H426.759V361.207Z" fill="#05038D"/>
<path d="M457.241 361.207H426.759V375.655H457.241V361.207Z" fill="#05038D"/>
<path d="M487.724 361.207H457.241V375.655H487.724V361.207Z" fill="#05038D"/>
<path d="M518.207 361.207H487.724V375.655H518.207V361.207Z" fill="#05038D"/>
<path d="M548.69 361.207H518.207V375.655H548.69V361.207Z" fill="#05038D"/>
<path d="M609.655 361.207H579.172V375.655H609.655V361.207Z" fill="#05038D"/>
<path d="M640.138 361.207H609.655V375.655H640.138V361.207Z" fill="#05038D"/>
<path d="M731.586 361.207H701.103V375.655H731.586V361.207Z" fill="#05038D"/>
<path d="M884 361.207H853.517V375.655H884V361.207Z" fill="#05038D"/>
<path d="M30.4828 375.655H0V390.103H30.4828V375.655Z" fill="#05038D"/>
<path d="M91.4483 375.655H60.9655V390.103H91.4483V375.655Z" fill="#05038D"/>
<path d="M121.931 375.655H91.4483V390.103H121.931V375.655Z" fill="#05038D"/>
<path d="M152.414 375.655H121.931V390.103H152.414V375.655Z" fill="#05038D"/>
<path d="M213.379 375.655H182.897V390.103H213.379V375.655Z" fill="#05038D"/>
<path d="M274.345 375.655H243.862V390.103H274.345V375.655Z" fill="#05038D"/>
<path d="M335.31 375.655H304.828V390.103H335.31V375.655Z" fill="#05038D"/>
<path d="M426.759 375.655H396.276V390.103H426.759V375.655Z" fill="#05038D"/>
<path d="M701.103 375.655H670.621V390.103H701.103V375.655Z" fill="#05038D"/>
<path d="M792.552 375.655H762.069V390.103H792.552V375.655Z" fill="#05038D"/>
<path d="M823.034 375.655H792.552V390.103H823.034V375.655Z" fill="#05038D"/>
<path d="M30.4828 390.103H0V404.552H30.4828V390.103Z" fill="#05038D"/>
<path d="M213.379 390.103H182.897V404.552H213.379V390.103Z" fill="#05038D"/>
<path d="M396.276 390.103H365.793V404.552H396.276V390.103Z" fill="#05038D"/>
<path d="M426.759 390.103H396.276V404.552H426.759V390.103Z" fill="#05038D"/>
<path d="M487.724 390.103H457.241V404.552H487.724V390.103Z" fill="#05038D"/>
<path d="M518.207 390.103H487.724V404.552H518.207V390.103Z" fill="#05038D"/>
<path d="M640.138 390.103H609.655V404.552H640.138V390.103Z" fill="#05038D"/>
<path d="M731.586 390.103H701.103V404.552H731.586V390.103Z" fill="#05038D"/>
<path d="M762.069 390.103H731.586V404.552H762.069V390.103Z" fill="#05038D"/>
<path d="M792.552 390.103H762.069V404.552H792.552V390.103Z" fill="#05038D"/>
<path d="M823.034 390.103H792.552V404.552H823.034V390.103Z" fill="#05038D"/>
<path d="M30.4828 404.552H0V419H30.4828V404.552Z" fill="#05038D"/>
<path d="M60.9655 404.552H30.4828V419H60.9655V404.552Z" fill="#05038D"/>
<path d="M91.4483 404.552H60.9655V419H91.4483V404.552Z" fill="#05038D"/>
<path d="M121.931 404.552H91.4483V419H121.931V404.552Z" fill="#05038D"/>
<path d="M152.414 404.552H121.931V419H152.414V404.552Z" fill="#05038D"/>
<path d="M182.897 404.552H152.414V419H182.897V404.552Z" fill="#05038D"/>
<path d="M213.379 404.552H182.897V419H213.379V404.552Z" fill="#05038D"/>
<path d="M274.345 404.552H243.862V419H274.345V404.552Z" fill="#05038D"/>
<path d="M304.828 404.552H274.345V419H304.828V404.552Z" fill="#05038D"/>
<path d="M335.31 404.552H304.828V419H335.31V404.552Z" fill="#05038D"/>
<path d="M365.793 404.552H335.31V419H365.793V404.552Z" fill="#05038D"/>
<path d="M396.276 404.552H365.793V419H396.276V404.552Z" fill="#05038D"/>
<path d="M426.759 404.552H396.276V419H426.759V404.552Z" fill="#05038D"/>
<path d="M457.241 404.552H426.759V419H457.241V404.552Z" fill="#05038D"/>
<path d="M518.207 404.552H487.724V419H518.207V404.552Z" fill="#05038D"/>
<path d="M548.69 404.552H518.207V419H548.69V404.552Z" fill="#05038D"/>
<path d="M579.172 404.552H548.69V419H579.172V404.552Z" fill="#05038D"/>
<path d="M609.655 404.552H579.172V419H609.655V404.552Z" fill="#05038D"/>
<path d="M640.138 404.552H609.655V419H640.138V404.552Z" fill="#05038D"/>
<path d="M701.103 404.552H670.621V419H701.103V404.552Z" fill="#05038D"/>
<path d="M731.586 404.552H701.103V419H731.586V404.552Z" fill="#05038D"/>
<path d="M823.034 404.552H792.552V419H823.034V404.552Z" fill="#05038D"/>
<path d="M884 404.552H853.517V419H884V404.552Z" fill="#05038D"/>
</g>
</pattern></defs>
</svg>
