<svg width="559" height="561" viewBox="0 0 559 561" fill="none" xmlns="http://www.w3.org/2000/svg">
<g clip-path="url(#clip0_34_33)">
<path d="M150 0C67.1573 3.33408e-06 6.66989e-06 67.1573 0 150V411C0 493.843 67.1573 561 150 561H558C558.552 561 559 560.552 559 560V150C559 67.1573 491.843 0 409 0H150ZM280.551 123.546C357.733 123.546 420.301 186.114 420.301 263.296V459.146C420.301 459.698 419.853 460.146 419.301 460.146H290.801C207.958 460.146 140.801 392.988 140.801 310.146V263.296C140.801 186.114 203.369 123.546 280.551 123.546ZM281.602 133.631C209.643 133.631 151.309 191.966 151.309 263.925V319.768C151.309 356.876 166.822 390.36 191.717 414.091C191.961 413.264 192.211 412.415 192.469 411.546L202.388 378.035C214.096 338.478 219.95 318.699 231.153 318.698C242.357 318.698 248.211 338.477 259.92 378.035L269.839 411.546C275.061 429.19 277.673 438.012 273.174 444.036C271.243 446.621 268.446 448.094 264.429 448.937C270.048 449.676 275.78 450.061 281.602 450.061C282.913 450.061 284.22 450.038 285.522 450H412V316H411.896V263.925C411.896 227.038 396.565 193.732 371.931 170.027C371.713 170.755 371.489 171.499 371.261 172.26L360.781 207.158C349.065 246.178 343.206 265.688 332.049 265.688C320.891 265.688 315.033 246.178 303.316 207.158L292.837 172.26C287.526 154.572 284.87 145.727 289.368 139.68C291.34 137.028 294.223 135.54 298.395 134.704C292.897 133.997 287.292 133.631 281.602 133.631Z" fill="white"/>
</g>
<defs>
<clipPath id="clip0_34_33">
<rect width="559" height="561" fill="white" transform="matrix(-1 0 0 1 559 0)"/>
</clipPath>
</defs>
</svg>
