<svg width="4590" height="2891" viewBox="0 0 4590 2891" fill="none" xmlns="http://www.w3.org/2000/svg">
<g clip-path="url(#clip0_9_2)">
<path d="M3289.6 177.792H1079.07C1065.27 177.792 1054.07 188.985 1054.07 202.792V2440.15C1054.07 2453.96 1065.27 2465.15 1079.07 2465.15H3289.6V2620.19H1022.78C995.168 2620.19 972.782 2597.8 972.782 2570.19V151.466C972.782 123.852 995.168 101.466 1022.78 101.466H3289.6V177.792Z" fill="#040404"/>
<path d="M546 2651.19H3289.6V2756.14H571C557.193 2756.14 546 2744.95 546 2731.14V2651.19Z" fill="#040404"/>
<path d="M972.782 2756.14H1321.18V2766.92C1321.18 2780.73 1309.98 2791.92 1296.18 2791.92H997.782C983.975 2791.92 972.782 2780.73 972.782 2766.92V2756.14Z" fill="#040404"/>
<rect x="1356.01" y="2620.19" width="1933.58" height="31.007" fill="#040404"/>
<path d="M3261.06 1819H2561.84L1769.85 870.758V1819H1181.96V417.633H1881.18L2673.17 1360.99V417.633H3261.06V1819Z" fill="black"/>
<path d="M1215.05 2117C1200.12 2117 1188.18 2111.2 1179.25 2099.6C1170.32 2088 1165.85 2071.13 1165.85 2049C1165.85 2026.87 1170.32 2010 1179.25 1998.4C1188.18 1986.8 1200.12 1981 1215.05 1981C1230.12 1981 1242.05 1986.8 1250.85 1998.4C1259.78 2010 1264.25 2026.87 1264.25 2049C1264.25 2071.13 1259.78 2088 1250.85 2099.6C1242.05 2111.2 1230.12 2117 1215.05 2117ZM1215.05 2102.6C1222.12 2102.6 1228.05 2100.6 1232.85 2096.6C1237.78 2092.47 1241.45 2086.4 1243.85 2078.4C1246.38 2070.4 1247.65 2060.6 1247.65 2049C1247.65 2037.4 1246.38 2027.6 1243.85 2019.6C1241.45 2011.6 1237.78 2005.6 1232.85 2001.6C1228.05 1997.47 1222.12 1995.4 1215.05 1995.4C1207.98 1995.4 1201.98 1997.47 1197.05 2001.6C1192.25 2005.6 1188.58 2011.6 1186.05 2019.6C1183.65 2027.6 1182.45 2037.4 1182.45 2049C1182.45 2060.6 1183.65 2070.4 1186.05 2078.4C1188.58 2086.4 1192.25 2092.47 1197.05 2096.6C1201.98 2100.6 1207.98 2102.6 1215.05 2102.6ZM1314.87 2115V2018.2C1314.87 2015.93 1314.87 2013.53 1314.87 2011C1315 2008.33 1315.13 2005.6 1315.27 2002.8C1310.73 2007.2 1305.47 2011.07 1299.47 2014.4C1293.47 2017.6 1287.33 2019.93 1281.07 2021.4L1276.87 2006.8C1279.27 2006.53 1282.27 2005.67 1285.87 2004.2C1289.6 2002.6 1293.47 2000.67 1297.47 1998.4C1301.6 1996 1305.4 1993.47 1308.87 1990.8C1312.33 1988.13 1315 1985.53 1316.87 1983H1330.87V2115H1314.87ZM1409.4 2117C1394.46 2117 1382.53 2111.2 1373.6 2099.6C1364.66 2088 1360.2 2071.13 1360.2 2049C1360.2 2026.87 1364.66 2010 1373.6 1998.4C1382.53 1986.8 1394.46 1981 1409.4 1981C1424.46 1981 1436.4 1986.8 1445.2 1998.4C1454.13 2010 1458.6 2026.87 1458.6 2049C1458.6 2071.13 1454.13 2088 1445.2 2099.6C1436.4 2111.2 1424.46 2117 1409.4 2117ZM1409.4 2102.6C1416.46 2102.6 1422.4 2100.6 1427.2 2096.6C1432.13 2092.47 1435.8 2086.4 1438.2 2078.4C1440.73 2070.4 1442 2060.6 1442 2049C1442 2037.4 1440.73 2027.6 1438.2 2019.6C1435.8 2011.6 1432.13 2005.6 1427.2 2001.6C1422.4 1997.47 1416.46 1995.4 1409.4 1995.4C1402.33 1995.4 1396.33 1997.47 1391.4 2001.6C1386.6 2005.6 1382.93 2011.6 1380.4 2019.6C1378 2027.6 1376.8 2037.4 1376.8 2049C1376.8 2060.6 1378 2070.4 1380.4 2078.4C1382.93 2086.4 1386.6 2092.47 1391.4 2096.6C1396.33 2100.6 1402.33 2102.6 1409.4 2102.6ZM1509.21 2115V2018.2C1509.21 2015.93 1509.21 2013.53 1509.21 2011C1509.34 2008.33 1509.48 2005.6 1509.61 2002.8C1505.08 2007.2 1499.81 2011.07 1493.81 2014.4C1487.81 2017.6 1481.68 2019.93 1475.41 2021.4L1471.21 2006.8C1473.61 2006.53 1476.61 2005.67 1480.21 2004.2C1483.94 2002.6 1487.81 2000.67 1491.81 1998.4C1495.94 1996 1499.74 1993.47 1503.21 1990.8C1506.68 1988.13 1509.34 1985.53 1511.21 1983H1525.21V2115H1509.21ZM1583.14 2115V2018.2C1583.14 2015.93 1583.14 2013.53 1583.14 2011C1583.27 2008.33 1583.41 2005.6 1583.54 2002.8C1579.01 2007.2 1573.74 2011.07 1567.74 2014.4C1561.74 2017.6 1555.61 2019.93 1549.34 2021.4L1545.14 2006.8C1547.54 2006.53 1550.54 2005.67 1554.14 2004.2C1557.87 2002.6 1561.74 2000.67 1565.74 1998.4C1569.87 1996 1573.67 1993.47 1577.14 1990.8C1580.61 1988.13 1583.27 1985.53 1585.14 1983H1599.14V2115H1583.14ZM1642.07 2091C1645.94 2091 1649.07 2092.2 1651.47 2094.6C1653.87 2097 1655.07 2100.13 1655.07 2104C1655.07 2107.87 1653.87 2111 1651.47 2113.4C1649.07 2115.8 1645.94 2117 1642.07 2117C1638.2 2117 1635.07 2115.8 1632.67 2113.4C1630.27 2111 1629.07 2107.87 1629.07 2104C1629.07 2100.13 1630.27 2097 1632.67 2094.6C1635.07 2092.2 1638.2 2091 1642.07 2091ZM1721.91 2117C1706.98 2117 1695.04 2111.2 1686.11 2099.6C1677.18 2088 1672.71 2071.13 1672.71 2049C1672.71 2026.87 1677.18 2010 1686.11 1998.4C1695.04 1986.8 1706.98 1981 1721.91 1981C1736.98 1981 1748.91 1986.8 1757.71 1998.4C1766.64 2010 1771.11 2026.87 1771.11 2049C1771.11 2071.13 1766.64 2088 1757.71 2099.6C1748.91 2111.2 1736.98 2117 1721.91 2117ZM1721.91 2102.6C1728.98 2102.6 1734.91 2100.6 1739.71 2096.6C1744.64 2092.47 1748.31 2086.4 1750.71 2078.4C1753.24 2070.4 1754.51 2060.6 1754.51 2049C1754.51 2037.4 1753.24 2027.6 1750.71 2019.6C1748.31 2011.6 1744.64 2005.6 1739.71 2001.6C1734.91 1997.47 1728.98 1995.4 1721.91 1995.4C1714.84 1995.4 1708.84 1997.47 1703.91 2001.6C1699.11 2005.6 1695.44 2011.6 1692.91 2019.6C1690.51 2027.6 1689.31 2037.4 1689.31 2049C1689.31 2060.6 1690.51 2070.4 1692.91 2078.4C1695.44 2086.4 1699.11 2092.47 1703.91 2096.6C1708.84 2100.6 1714.84 2102.6 1721.91 2102.6ZM1821.73 2115V2018.2C1821.73 2015.93 1821.73 2013.53 1821.73 2011C1821.86 2008.33 1821.99 2005.6 1822.13 2002.8C1817.59 2007.2 1812.33 2011.07 1806.33 2014.4C1800.33 2017.6 1794.19 2019.93 1787.93 2021.4L1783.73 2006.8C1786.13 2006.53 1789.13 2005.67 1792.73 2004.2C1796.46 2002.6 1800.33 2000.67 1804.33 1998.4C1808.46 1996 1812.26 1993.47 1815.73 1990.8C1819.19 1988.13 1821.86 1985.53 1823.73 1983H1837.73V2115H1821.73ZM1895.65 2115V2018.2C1895.65 2015.93 1895.65 2013.53 1895.65 2011C1895.79 2008.33 1895.92 2005.6 1896.05 2002.8C1891.52 2007.2 1886.25 2011.07 1880.25 2014.4C1874.25 2017.6 1868.12 2019.93 1861.85 2021.4L1857.65 2006.8C1860.05 2006.53 1863.05 2005.67 1866.65 2004.2C1870.39 2002.6 1874.25 2000.67 1878.25 1998.4C1882.39 1996 1886.19 1993.47 1889.65 1990.8C1893.12 1988.13 1895.79 1985.53 1897.65 1983H1911.65V2115H1895.65ZM1969.58 2115V2018.2C1969.58 2015.93 1969.58 2013.53 1969.58 2011C1969.72 2008.33 1969.85 2005.6 1969.98 2002.8C1965.45 2007.2 1960.18 2011.07 1954.18 2014.4C1948.18 2017.6 1942.05 2019.93 1935.78 2021.4L1931.58 2006.8C1933.98 2006.53 1936.98 2005.67 1940.58 2004.2C1944.32 2002.6 1948.18 2000.67 1952.18 1998.4C1956.32 1996 1960.12 1993.47 1963.58 1990.8C1967.05 1988.13 1969.72 1985.53 1971.58 1983H1985.58V2115H1969.58ZM2064.11 2117C2049.18 2117 2037.25 2111.2 2028.31 2099.6C2019.38 2088 2014.91 2071.13 2014.91 2049C2014.91 2026.87 2019.38 2010 2028.31 1998.4C2037.25 1986.8 2049.18 1981 2064.11 1981C2079.18 1981 2091.11 1986.8 2099.91 1998.4C2108.85 2010 2113.31 2026.87 2113.31 2049C2113.31 2071.13 2108.85 2088 2099.91 2099.6C2091.11 2111.2 2079.18 2117 2064.11 2117ZM2064.11 2102.6C2071.18 2102.6 2077.11 2100.6 2081.91 2096.6C2086.85 2092.47 2090.51 2086.4 2092.91 2078.4C2095.45 2070.4 2096.71 2060.6 2096.71 2049C2096.71 2037.4 2095.45 2027.6 2092.91 2019.6C2090.51 2011.6 2086.85 2005.6 2081.91 2001.6C2077.11 1997.47 2071.18 1995.4 2064.11 1995.4C2057.05 1995.4 2051.05 1997.47 2046.11 2001.6C2041.31 2005.6 2037.65 2011.6 2035.11 2019.6C2032.71 2027.6 2031.51 2037.4 2031.51 2049C2031.51 2060.6 2032.71 2070.4 2035.11 2078.4C2037.65 2086.4 2041.31 2092.47 2046.11 2096.6C2051.05 2100.6 2057.05 2102.6 2064.11 2102.6ZM2163.93 2115V2018.2C2163.93 2015.93 2163.93 2013.53 2163.93 2011C2164.06 2008.33 2164.19 2005.6 2164.33 2002.8C2159.79 2007.2 2154.53 2011.07 2148.53 2014.4C2142.53 2017.6 2136.39 2019.93 2130.13 2021.4L2125.93 2006.8C2128.33 2006.53 2131.33 2005.67 2134.93 2004.2C2138.66 2002.6 2142.53 2000.67 2146.53 1998.4C2150.66 1996 2154.46 1993.47 2157.93 1990.8C2161.39 1988.13 2164.06 1985.53 2165.93 1983H2179.93V2115H2163.93ZM2222.86 2091C2226.72 2091 2229.86 2092.2 2232.26 2094.6C2234.66 2097 2235.86 2100.13 2235.86 2104C2235.86 2107.87 2234.66 2111 2232.26 2113.4C2229.86 2115.8 2226.72 2117 2222.86 2117C2218.99 2117 2215.86 2115.8 2213.46 2113.4C2211.06 2111 2209.86 2107.87 2209.86 2104C2209.86 2100.13 2211.06 2097 2213.46 2094.6C2215.86 2092.2 2218.99 2091 2222.86 2091ZM2302.7 2117C2287.77 2117 2275.83 2111.2 2266.9 2099.6C2257.97 2088 2253.5 2071.13 2253.5 2049C2253.5 2026.87 2257.97 2010 2266.9 1998.4C2275.83 1986.8 2287.77 1981 2302.7 1981C2317.77 1981 2329.7 1986.8 2338.5 1998.4C2347.43 2010 2351.9 2026.87 2351.9 2049C2351.9 2071.13 2347.43 2088 2338.5 2099.6C2329.7 2111.2 2317.77 2117 2302.7 2117ZM2302.7 2102.6C2309.77 2102.6 2315.7 2100.6 2320.5 2096.6C2325.43 2092.47 2329.1 2086.4 2331.5 2078.4C2334.03 2070.4 2335.3 2060.6 2335.3 2049C2335.3 2037.4 2334.03 2027.6 2331.5 2019.6C2329.1 2011.6 2325.43 2005.6 2320.5 2001.6C2315.7 1997.47 2309.77 1995.4 2302.7 1995.4C2295.63 1995.4 2289.63 1997.47 2284.7 2001.6C2279.9 2005.6 2276.23 2011.6 2273.7 2019.6C2271.3 2027.6 2270.1 2037.4 2270.1 2049C2270.1 2060.6 2271.3 2070.4 2273.7 2078.4C2276.23 2086.4 2279.9 2092.47 2284.7 2096.6C2289.63 2100.6 2295.63 2102.6 2302.7 2102.6ZM2402.51 2115V2018.2C2402.51 2015.93 2402.51 2013.53 2402.51 2011C2402.65 2008.33 2402.78 2005.6 2402.91 2002.8C2398.38 2007.2 2393.11 2011.07 2387.11 2014.4C2381.11 2017.6 2374.98 2019.93 2368.71 2021.4L2364.51 2006.8C2366.91 2006.53 2369.91 2005.67 2373.51 2004.2C2377.25 2002.6 2381.11 2000.67 2385.11 1998.4C2389.25 1996 2393.05 1993.47 2396.51 1990.8C2399.98 1988.13 2402.65 1985.53 2404.51 1983H2418.51V2115H2402.51ZM2476.44 2115V2018.2C2476.44 2015.93 2476.44 2013.53 2476.44 2011C2476.58 2008.33 2476.71 2005.6 2476.84 2002.8C2472.31 2007.2 2467.04 2011.07 2461.04 2014.4C2455.04 2017.6 2448.91 2019.93 2442.64 2021.4L2438.44 2006.8C2440.84 2006.53 2443.84 2005.67 2447.44 2004.2C2451.18 2002.6 2455.04 2000.67 2459.04 1998.4C2463.18 1996 2466.98 1993.47 2470.44 1990.8C2473.91 1988.13 2476.58 1985.53 2478.44 1983H2492.44V2115H2476.44ZM2550.37 2115V2018.2C2550.37 2015.93 2550.37 2013.53 2550.37 2011C2550.51 2008.33 2550.64 2005.6 2550.77 2002.8C2546.24 2007.2 2540.97 2011.07 2534.97 2014.4C2528.97 2017.6 2522.84 2019.93 2516.57 2021.4L2512.37 2006.8C2514.77 2006.53 2517.77 2005.67 2521.37 2004.2C2525.11 2002.6 2528.97 2000.67 2532.97 1998.4C2537.11 1996 2540.91 1993.47 2544.37 1990.8C2547.84 1988.13 2550.51 1985.53 2552.37 1983H2566.37V2115H2550.37ZM2624.3 2115V2018.2C2624.3 2015.93 2624.3 2013.53 2624.3 2011C2624.44 2008.33 2624.57 2005.6 2624.7 2002.8C2620.17 2007.2 2614.9 2011.07 2608.9 2014.4C2602.9 2017.6 2596.77 2019.93 2590.5 2021.4L2586.3 2006.8C2588.7 2006.53 2591.7 2005.67 2595.3 2004.2C2599.04 2002.6 2602.9 2000.67 2606.9 1998.4C2611.04 1996 2614.84 1993.47 2618.3 1990.8C2621.77 1988.13 2624.44 1985.53 2626.3 1983H2640.3V2115H2624.3ZM2698.23 2115V2018.2C2698.23 2015.93 2698.23 2013.53 2698.23 2011C2698.37 2008.33 2698.5 2005.6 2698.63 2002.8C2694.1 2007.2 2688.83 2011.07 2682.83 2014.4C2676.83 2017.6 2670.7 2019.93 2664.43 2021.4L2660.23 2006.8C2662.63 2006.53 2665.63 2005.67 2669.23 2004.2C2672.97 2002.6 2676.83 2000.67 2680.83 1998.4C2684.97 1996 2688.77 1993.47 2692.23 1990.8C2695.7 1988.13 2698.37 1985.53 2700.23 1983H2714.23V2115H2698.23ZM2792.76 2117C2777.83 2117 2765.9 2111.2 2756.96 2099.6C2748.03 2088 2743.56 2071.13 2743.56 2049C2743.56 2026.87 2748.03 2010 2756.96 1998.4C2765.9 1986.8 2777.83 1981 2792.76 1981C2807.83 1981 2819.76 1986.8 2828.56 1998.4C2837.5 2010 2841.96 2026.87 2841.96 2049C2841.96 2071.13 2837.5 2088 2828.56 2099.6C2819.76 2111.2 2807.83 2117 2792.76 2117ZM2792.76 2102.6C2799.83 2102.6 2805.76 2100.6 2810.56 2096.6C2815.5 2092.47 2819.16 2086.4 2821.56 2078.4C2824.1 2070.4 2825.36 2060.6 2825.36 2049C2825.36 2037.4 2824.1 2027.6 2821.56 2019.6C2819.16 2011.6 2815.5 2005.6 2810.56 2001.6C2805.76 1997.47 2799.83 1995.4 2792.76 1995.4C2785.7 1995.4 2779.7 1997.47 2774.76 2001.6C2769.96 2005.6 2766.3 2011.6 2763.76 2019.6C2761.36 2027.6 2760.16 2037.4 2760.16 2049C2760.16 2060.6 2761.36 2070.4 2763.76 2078.4C2766.3 2086.4 2769.96 2092.47 2774.76 2096.6C2779.7 2100.6 2785.7 2102.6 2792.76 2102.6ZM2892.58 2115V2018.2C2892.58 2015.93 2892.58 2013.53 2892.58 2011C2892.71 2008.33 2892.84 2005.6 2892.98 2002.8C2888.44 2007.2 2883.18 2011.07 2877.18 2014.4C2871.18 2017.6 2865.04 2019.93 2858.78 2021.4L2854.58 2006.8C2856.98 2006.53 2859.98 2005.67 2863.58 2004.2C2867.31 2002.6 2871.18 2000.67 2875.18 1998.4C2879.31 1996 2883.11 1993.47 2886.58 1990.8C2890.04 1988.13 2892.71 1985.53 2894.58 1983H2908.58V2115H2892.58ZM2987.11 2117C2972.17 2117 2960.24 2111.2 2951.31 2099.6C2942.37 2088 2937.91 2071.13 2937.91 2049C2937.91 2026.87 2942.37 2010 2951.31 1998.4C2960.24 1986.8 2972.17 1981 2987.11 1981C3002.17 1981 3014.11 1986.8 3022.91 1998.4C3031.84 2010 3036.31 2026.87 3036.31 2049C3036.31 2071.13 3031.84 2088 3022.91 2099.6C3014.11 2111.2 3002.17 2117 2987.11 2117ZM2987.11 2102.6C2994.17 2102.6 3000.11 2100.6 3004.91 2096.6C3009.84 2092.47 3013.51 2086.4 3015.91 2078.4C3018.44 2070.4 3019.71 2060.6 3019.71 2049C3019.71 2037.4 3018.44 2027.6 3015.91 2019.6C3013.51 2011.6 3009.84 2005.6 3004.91 2001.6C3000.11 1997.47 2994.17 1995.4 2987.11 1995.4C2980.04 1995.4 2974.04 1997.47 2969.11 2001.6C2964.31 2005.6 2960.64 2011.6 2958.11 2019.6C2955.71 2027.6 2954.51 2037.4 2954.51 2049C2954.51 2060.6 2955.71 2070.4 2958.11 2078.4C2960.64 2086.4 2964.31 2092.47 2969.11 2096.6C2974.04 2100.6 2980.04 2102.6 2987.11 2102.6ZM3107.52 2117C3092.59 2117 3080.65 2111.2 3071.72 2099.6C3062.79 2088 3058.32 2071.13 3058.32 2049C3058.32 2026.87 3062.79 2010 3071.72 1998.4C3080.65 1986.8 3092.59 1981 3107.52 1981C3122.59 1981 3134.52 1986.8 3143.32 1998.4C3152.25 2010 3156.72 2026.87 3156.72 2049C3156.72 2071.13 3152.25 2088 3143.32 2099.6C3134.52 2111.2 3122.59 2117 3107.52 2117ZM3107.52 2102.6C3114.59 2102.6 3120.52 2100.6 3125.32 2096.6C3130.25 2092.47 3133.92 2086.4 3136.32 2078.4C3138.85 2070.4 3140.12 2060.6 3140.12 2049C3140.12 2037.4 3138.85 2027.6 3136.32 2019.6C3133.92 2011.6 3130.25 2005.6 3125.32 2001.6C3120.52 1997.47 3114.59 1995.4 3107.52 1995.4C3100.45 1995.4 3094.45 1997.47 3089.52 2001.6C3084.72 2005.6 3081.05 2011.6 3078.52 2019.6C3076.12 2027.6 3074.92 2037.4 3074.92 2049C3074.92 2060.6 3076.12 2070.4 3078.52 2078.4C3081.05 2086.4 3084.72 2092.47 3089.52 2096.6C3094.45 2100.6 3100.45 2102.6 3107.52 2102.6ZM3227.93 2117C3213 2117 3201.07 2111.2 3192.13 2099.6C3183.2 2088 3178.73 2071.13 3178.73 2049C3178.73 2026.87 3183.2 2010 3192.13 1998.4C3201.07 1986.8 3213 1981 3227.93 1981C3243 1981 3254.93 1986.8 3263.73 1998.4C3272.67 2010 3277.13 2026.87 3277.13 2049C3277.13 2071.13 3272.67 2088 3263.73 2099.6C3254.93 2111.2 3243 2117 3227.93 2117ZM3227.93 2102.6C3235 2102.6 3240.93 2100.6 3245.73 2096.6C3250.67 2092.47 3254.33 2086.4 3256.73 2078.4C3259.27 2070.4 3260.53 2060.6 3260.53 2049C3260.53 2037.4 3259.27 2027.6 3256.73 2019.6C3254.33 2011.6 3250.67 2005.6 3245.73 2001.6C3240.93 1997.47 3235 1995.4 3227.93 1995.4C3220.87 1995.4 3214.87 1997.47 3209.93 2001.6C3205.13 2005.6 3201.47 2011.6 3198.93 2019.6C3196.53 2027.6 3195.33 2037.4 3195.33 2049C3195.33 2060.6 3196.53 2070.4 3198.93 2078.4C3201.47 2086.4 3205.13 2092.47 3209.93 2096.6C3214.87 2100.6 3220.87 2102.6 3227.93 2102.6Z" fill="black"/>
</g>
<defs>
<clipPath id="clip0_9_2">
<rect width="4590" height="2891" fill="white"/>
</clipPath>
</defs>
</svg>
