<svg width="8955" height="2902" viewBox="0 0 8955 2902" fill="none" xmlns="http://www.w3.org/2000/svg">
<line x1="8.12109" y1="2342.5" x2="8954.12" y2="2342.5" stroke="#D1BA9B" stroke-width="35"/>
<line x1="0.121094" y1="2589.5" x2="8946.12" y2="2589.5" stroke="#D1BA9B" stroke-width="35"/>
<path d="M857.888 2197.99C722.432 2197.99 606.73 2182 510.782 2150.02C416.715 2116.16 337.7 2073.83 273.734 2023.03C211.65 1970.35 161.795 1915.79 124.168 1859.35C86.5413 1801.03 58.3214 1746.47 39.508 1695.68C22.576 1643 11.288 1600.67 5.644 1568.69C1.88133 1534.82 0 1517.89 0 1517.89H440.232C440.232 1517.89 443.995 1533.88 451.52 1565.87C460.927 1597.85 479.74 1635.47 507.96 1678.75C536.18 1720.13 579.451 1756.82 637.772 1788.8C696.094 1818.9 775.109 1833.96 874.82 1833.96C997.107 1833.96 1087.41 1808.56 1145.73 1757.76C1204.05 1705.08 1233.21 1643 1233.21 1571.51C1233.21 1507.54 1210.64 1456.75 1165.49 1419.12C1122.22 1381.49 1054.49 1353.27 962.302 1334.46L682.924 1280.84C570.044 1260.15 464.69 1227.23 366.86 1182.07C270.912 1136.92 192.837 1074.84 132.634 995.822C72.4313 914.924 42.33 811.451 42.33 685.402C42.33 557.471 74.3126 446.472 138.278 352.405C202.243 256.457 291.607 183.085 406.368 132.289C523.011 79.6121 659.407 53.2734 815.558 53.2734C962.302 53.2734 1083.65 74.9088 1179.6 118.179C1277.43 159.569 1354.56 211.305 1411 273.389C1469.32 333.592 1511.65 394.735 1537.99 456.819C1566.21 518.904 1584.08 570.64 1591.61 612.029C1601.02 653.419 1605.72 674.114 1605.72 674.114H1176.77C1176.77 674.114 1173.01 660.944 1165.49 634.606C1159.84 608.267 1144.79 578.166 1120.33 544.302C1095.88 510.438 1058.25 480.336 1007.45 453.997C958.54 427.659 890.812 414.49 804.27 414.49C685.746 414.49 600.146 440.828 547.468 493.505C494.791 544.302 468.452 599.801 468.452 660.004C468.452 722.088 494.791 770.062 547.468 803.926C600.146 837.79 668.814 863.188 753.474 880.12L1049.78 939.382C1162.66 960.076 1266.14 994.881 1360.2 1043.8C1454.27 1092.71 1528.58 1158.56 1583.14 1241.34C1639.58 1322.23 1667.8 1422.88 1667.8 1543.29C1667.8 1667.46 1636.76 1779.4 1574.68 1879.11C1512.59 1976.94 1421.35 2055.01 1300.94 2113.33C1180.54 2169.77 1032.85 2197.99 857.888 2197.99Z" fill="#DB6D1D"/>
<path d="M7196.11 2197.99V109.714H7630.7V993L8378.53 109.714H8914.71L8042.71 1111.52L8945.75 2197.99H8389.82L7630.7 1269.56V2197.99H7196.11Z" fill="#DB6D1D"/>
<path d="M5897.79 2198.33H5463.2V110.047H5884.54L5897.79 1988.55V2198.33Z" fill="#D46E2C"/>
<path d="M5711.24 1394.28V1988.78L5698 110.273H6123.26C6277.53 110.273 6409.22 137.553 6518.34 192.111C6629.34 246.67 6714 321.923 6772.32 417.871C6832.52 513.819 6862.62 624.818 6862.62 750.867C6862.62 888.205 6827.82 1008.61 6758.21 1112.08C6688.6 1213.68 6471.3 1347.25 6343.37 1394.28L6916.24 2198.55H6433.68L5878.98 1394.28H5711.24ZM6117.61 485.599H5711.24V1038.71H6117.61C6213.56 1038.71 6288.81 1012.37 6343.37 959.695C6397.93 907.018 6425.21 842.112 6425.21 764.977C6425.21 685.961 6397.93 620.115 6343.37 567.437C6288.81 512.879 6213.56 485.599 6117.61 485.599Z" fill="#D07127"/>
<path d="M2354.39 1126.19L2353.5 1504.34H2330.59V2198.55H1896V110.273H2356.8L2355.9 491.243H2330.59V1126.19H2354.39Z" fill="#D46E2C"/>
<path d="M2573.72 1125.94C2647.09 1125.94 2708.23 1110.88 2757.15 1080.78C2806.06 1048.8 2842.75 1009.29 2867.2 962.26C2893.54 913.345 2906.71 861.608 2906.71 807.05C2906.71 754.372 2893.54 703.576 2867.2 654.661C2842.75 605.747 2806.06 566.239 2757.15 536.138C2708.23 506.036 2647.09 490.986 2573.72 490.986H2172.9L2173.81 110.016H2573.72C2744.92 110.016 2886.96 143.88 2999.84 211.607C3114.6 279.336 3200.2 366.818 3256.64 474.054C3314.96 579.408 3344.12 689.466 3344.12 804.228C3344.12 922.752 3314.96 1035.63 3256.64 1142.87C3200.2 1248.22 3114.6 1334.76 2999.84 1402.49C2886.96 1470.22 2744.92 1504.08 2573.72 1504.08H2170.5L2171.4 1125.94H2573.72Z" fill="#D46E2C"/>
<path d="M3376.5 1766.27L3145.5 1897.77L4180 147.273L5234.5 1897.77L4964 1766.27L4813 1718.77L4180 680.273L3559.5 1718.77L3376.5 1766.27Z" fill="url(#paint0_linear_55_38)"/>
<path d="M4013 1568.77C3898.6 1675.62 3640.5 1716.77 3640.5 1716.77C3640.5 1716.77 3897.77 1746.91 4013 1849.77C4146.98 1969.37 4187.5 2275.27 4187.5 2275.27C4187.5 2275.27 4225 1970.04 4357.5 1849.77C4480.49 1738.14 4761.5 1716.77 4761.5 1716.77C4761.5 1716.77 4479.56 1684.25 4357.5 1568.77C4232.24 1450.27 4187.5 1161.27 4187.5 1161.27C4187.5 1161.27 4139.52 1450.61 4013 1568.77Z" fill="url(#paint1_linear_55_38)"/>
<path d="M106.142 2461.28C105.716 2456.99 103.887 2453.65 100.655 2451.27C97.4237 2448.89 93.038 2447.7 87.4982 2447.7C83.734 2447.7 80.5558 2448.23 77.9634 2449.3C75.3711 2450.33 73.3825 2451.77 71.9975 2453.61C70.6481 2455.46 69.9734 2457.55 69.9734 2459.9C69.9023 2461.85 70.3107 2463.56 71.1985 2465.01C72.1218 2466.47 73.3825 2467.73 74.9805 2468.79C76.5785 2469.82 78.4251 2470.73 80.5202 2471.51C82.6154 2472.26 84.8526 2472.9 87.2319 2473.43L97.033 2475.77C101.792 2476.84 106.159 2478.26 110.137 2480.03C114.114 2481.81 117.559 2483.99 120.471 2486.59C123.382 2489.18 125.637 2492.23 127.235 2495.75C128.869 2499.26 129.703 2503.29 129.739 2507.84C129.703 2514.51 127.999 2520.3 124.625 2525.2C121.287 2530.07 116.458 2533.85 110.137 2536.55C103.851 2539.21 96.2695 2540.54 87.3917 2540.54C78.5849 2540.54 70.9144 2539.2 64.3803 2536.5C57.8817 2533.8 52.8036 2529.8 49.146 2524.51C45.5238 2519.18 43.6239 2512.6 43.4464 2504.75H65.7653C66.0138 2508.41 67.0614 2511.46 68.908 2513.91C70.7901 2516.33 73.2937 2518.15 76.4187 2519.4C79.5792 2520.61 83.1481 2521.21 87.1254 2521.21C91.0316 2521.21 94.4229 2520.64 97.2994 2519.5C100.211 2518.37 102.466 2516.79 104.064 2514.76C105.662 2512.74 106.461 2510.41 106.461 2507.79C106.461 2505.34 105.733 2503.28 104.277 2501.61C102.857 2499.94 100.762 2498.52 97.9918 2497.35C95.2575 2496.17 91.9016 2495.11 87.9244 2494.15L76.0458 2491.17C66.8484 2488.93 59.5863 2485.43 54.2596 2480.67C48.9329 2475.91 46.2873 2469.5 46.3228 2461.44C46.2873 2454.84 48.0451 2449.07 51.5962 2444.13C55.1829 2439.2 60.1012 2435.34 66.3512 2432.57C72.6012 2429.8 79.7035 2428.42 87.658 2428.42C95.7546 2428.42 102.821 2429.8 108.858 2432.57C114.931 2435.34 119.654 2439.2 123.027 2444.13C126.401 2449.07 128.141 2454.78 128.248 2461.28H106.142ZM150.098 2448.93V2429.91H239.693V2448.93H206.295V2539H183.497V2448.93H150.098ZM263.448 2539V2429.91H306.488C314.727 2429.91 321.758 2431.38 327.582 2434.33C333.441 2437.24 337.898 2441.38 340.952 2446.74C344.041 2452.07 345.586 2458.34 345.586 2465.54C345.586 2472.79 344.024 2479.02 340.899 2484.24C337.774 2489.43 333.246 2493.4 327.316 2496.17C321.421 2498.94 314.283 2500.33 305.902 2500.33H277.085V2481.79H302.173C306.577 2481.79 310.235 2481.19 313.146 2479.98C316.058 2478.77 318.225 2476.96 319.645 2474.55C321.101 2472.13 321.829 2469.13 321.829 2465.54C321.829 2461.92 321.101 2458.87 319.645 2456.38C318.225 2453.9 316.041 2452.01 313.093 2450.74C310.181 2449.42 306.506 2448.77 302.067 2448.77H286.513V2539H263.448ZM322.362 2489.36L349.475 2539H324.013L297.486 2489.36H322.362ZM370.886 2539V2429.91H444.394V2448.93H393.95V2474.92H440.612V2493.94H393.95V2519.98H444.607V2539H370.886ZM562.978 2429.91V2539H543.056L495.595 2470.34H494.796V2539H471.732V2429.91H491.973L539.061 2498.52H540.02V2429.91H562.978ZM663.371 2465.17C662.625 2462.58 661.578 2460.29 660.228 2458.3C658.879 2456.28 657.227 2454.57 655.274 2453.19C653.357 2451.77 651.155 2450.68 648.669 2449.94C646.219 2449.19 643.502 2448.82 640.519 2448.82C634.944 2448.82 630.044 2450.2 625.818 2452.97C621.627 2455.74 618.36 2459.77 616.017 2465.07C613.673 2470.32 612.501 2476.75 612.501 2484.35C612.501 2491.95 613.655 2498.41 615.963 2503.74C618.271 2509.06 621.539 2513.13 625.764 2515.94C629.99 2518.71 634.98 2520.09 640.732 2520.09C645.953 2520.09 650.409 2519.17 654.102 2517.32C657.831 2515.44 660.672 2512.79 662.625 2509.38C664.614 2505.97 665.608 2501.94 665.608 2497.29L670.296 2497.98H642.171V2480.62H687.82V2494.36C687.82 2503.95 685.796 2512.19 681.748 2519.08C677.7 2525.93 672.124 2531.22 665.022 2534.95C657.92 2538.64 649.788 2540.49 640.626 2540.49C630.399 2540.49 621.414 2538.24 613.673 2533.73C605.931 2529.18 599.894 2522.74 595.562 2514.39C591.265 2506.01 589.117 2496.07 589.117 2484.56C589.117 2475.72 590.395 2467.84 592.952 2460.91C595.544 2453.95 599.166 2448.06 603.818 2443.23C608.47 2438.4 613.886 2434.72 620.065 2432.2C626.244 2429.68 632.938 2428.42 640.146 2428.42C646.325 2428.42 652.078 2429.32 657.405 2431.13C662.732 2432.91 667.455 2435.43 671.574 2438.7C675.729 2441.97 679.12 2445.85 681.748 2450.36C684.376 2454.84 686.063 2459.77 686.808 2465.17H663.371ZM705.303 2448.93V2429.91H794.898V2448.93H761.5V2539H738.702V2448.93H705.303ZM818.653 2539V2429.91H841.718V2474.92H888.54V2429.91H911.551V2539H888.54V2493.94H841.718V2539H818.653ZM939.567 2539V2429.91H1013.08V2448.93H962.632V2474.92H1009.29V2493.94H962.632V2519.98H1013.29V2539H939.567ZM1131.66 2429.91V2539H1111.74L1064.28 2470.34H1063.48V2539H1040.41V2429.91H1060.65L1107.74 2498.52H1108.7V2429.91H1131.66ZM1182.78 2429.91V2539H1159.72V2429.91H1182.78ZM1302 2429.91V2539H1282.08L1234.62 2470.34H1233.82V2539H1210.76V2429.91H1231L1278.09 2498.52H1279.05V2429.91H1302ZM1402.4 2465.17C1401.65 2462.58 1400.6 2460.29 1399.25 2458.3C1397.9 2456.28 1396.25 2454.57 1394.3 2453.19C1392.38 2451.77 1390.18 2450.68 1387.69 2449.94C1385.24 2449.19 1382.53 2448.82 1379.54 2448.82C1373.97 2448.82 1369.07 2450.2 1364.84 2452.97C1360.65 2455.74 1357.39 2459.77 1355.04 2465.07C1352.7 2470.32 1351.53 2476.75 1351.53 2484.35C1351.53 2491.95 1352.68 2498.41 1354.99 2503.74C1357.3 2509.06 1360.56 2513.13 1364.79 2515.94C1369.02 2518.71 1374 2520.09 1379.76 2520.09C1384.98 2520.09 1389.43 2519.17 1393.13 2517.32C1396.86 2515.44 1399.7 2512.79 1401.65 2509.38C1403.64 2505.97 1404.63 2501.94 1404.63 2497.29L1409.32 2497.98H1381.2V2480.62H1426.85V2494.36C1426.85 2503.95 1424.82 2512.19 1420.77 2519.08C1416.73 2525.93 1411.15 2531.22 1404.05 2534.95C1396.95 2538.64 1388.81 2540.49 1379.65 2540.49C1369.42 2540.49 1360.44 2538.24 1352.7 2533.73C1344.96 2529.18 1338.92 2522.74 1334.59 2514.39C1330.29 2506.01 1328.14 2496.07 1328.14 2484.56C1328.14 2475.72 1329.42 2467.84 1331.98 2460.91C1334.57 2453.95 1338.19 2448.06 1342.84 2443.23C1347.5 2438.4 1352.91 2434.72 1359.09 2432.2C1365.27 2429.68 1371.96 2428.42 1379.17 2428.42C1385.35 2428.42 1391.1 2429.32 1396.43 2431.13C1401.76 2432.91 1406.48 2435.43 1410.6 2438.7C1414.75 2441.97 1418.15 2445.85 1420.77 2450.36C1423.4 2454.84 1425.09 2459.77 1425.83 2465.17H1402.4ZM1492.73 2448.93V2429.91H1582.33V2448.93H1548.93V2539H1526.13V2448.93H1492.73ZM1606.08 2539V2429.91H1629.15V2474.92H1675.97V2429.91H1698.98V2539H1675.97V2493.94H1629.15V2539H1606.08ZM1727 2539V2429.91H1800.51V2448.93H1750.06V2474.92H1796.72V2493.94H1750.06V2519.98H1800.72V2539H1727ZM1871.56 2539V2429.91H1914.6C1922.87 2429.91 1929.92 2431.49 1935.75 2434.65C1941.57 2437.77 1946.01 2442.12 1949.06 2447.7C1952.15 2453.24 1953.7 2459.63 1953.7 2466.88C1953.7 2474.12 1952.13 2480.51 1949.01 2486.05C1945.88 2491.59 1941.36 2495.91 1935.43 2499C1929.53 2502.09 1922.39 2503.63 1914.01 2503.63H1886.58V2485.15H1910.28C1914.72 2485.15 1918.38 2484.38 1921.26 2482.86C1924.17 2481.29 1926.34 2479.15 1927.76 2476.41C1929.21 2473.64 1929.94 2470.46 1929.94 2466.88C1929.94 2463.25 1929.21 2460.09 1927.76 2457.39C1926.34 2454.66 1924.17 2452.55 1921.26 2451.06C1918.35 2449.53 1914.65 2448.77 1910.18 2448.77H1894.62V2539H1871.56ZM1977.68 2539V2429.91H2000.74V2474.92H2047.57V2429.91H2070.58V2539H2047.57V2493.94H2000.74V2539H1977.68ZM2121.66 2429.91V2539H2098.59V2429.91H2121.66ZM2149.63 2539V2429.91H2172.7V2519.98H2219.47V2539H2149.63ZM2266.81 2429.91V2539H2243.74V2429.91H2266.81ZM2294.78 2539V2429.91H2337.82C2346.1 2429.91 2353.15 2431.49 2358.97 2434.65C2364.79 2437.77 2369.23 2442.12 2372.29 2447.7C2375.38 2453.24 2376.92 2459.63 2376.92 2466.88C2376.92 2474.12 2375.36 2480.51 2372.23 2486.05C2369.11 2491.59 2364.58 2495.91 2358.65 2499C2352.75 2502.09 2345.62 2503.63 2337.24 2503.63H2309.8V2485.15H2333.51C2337.95 2485.15 2341.6 2484.38 2344.48 2482.86C2347.39 2481.29 2349.56 2479.15 2350.98 2476.41C2352.44 2473.64 2353.16 2470.46 2353.16 2466.88C2353.16 2463.25 2352.44 2460.09 2350.98 2457.39C2349.56 2454.66 2347.39 2452.55 2344.48 2451.06C2341.57 2449.53 2337.88 2448.77 2333.4 2448.77H2317.85V2539H2294.78ZM2400.9 2539V2429.91H2443.94C2452.22 2429.91 2459.26 2431.49 2465.09 2434.65C2470.91 2437.77 2475.35 2442.12 2478.41 2447.7C2481.49 2453.24 2483.04 2459.63 2483.04 2466.88C2483.04 2474.12 2481.48 2480.51 2478.35 2486.05C2475.23 2491.59 2470.7 2495.91 2464.77 2499C2458.87 2502.09 2451.74 2503.63 2443.36 2503.63H2415.92V2485.15H2439.63C2444.07 2485.15 2447.72 2484.38 2450.6 2482.86C2453.51 2481.29 2455.68 2479.15 2457.1 2476.41C2458.55 2473.64 2459.28 2470.46 2459.28 2466.88C2459.28 2463.25 2458.55 2460.09 2457.1 2457.39C2455.68 2454.66 2453.51 2452.55 2450.6 2451.06C2447.69 2449.53 2443.99 2448.77 2439.52 2448.77H2423.97V2539H2400.9ZM2530.09 2429.91V2539H2507.02V2429.91H2530.09ZM2649.31 2429.91V2539H2629.39L2581.93 2470.34H2581.13V2539H2558.06V2429.91H2578.3L2625.39 2498.52H2626.35V2429.91H2649.31ZM2677.36 2539V2429.91H2750.87V2448.93H2700.43V2474.92H2747.09V2493.94H2700.43V2519.98H2751.09V2539H2677.36ZM2846.48 2539L2815.27 2429.91H2840.46L2858.52 2505.71H2859.43L2879.35 2429.91H2900.92L2920.79 2505.87H2921.75L2939.81 2429.91H2965L2933.79 2539H2911.31L2890.53 2467.68H2889.68L2868.96 2539H2846.48ZM3080.44 2484.45C3080.44 2496.35 3078.19 2506.47 3073.68 2514.82C3069.2 2523.16 3063.1 2529.54 3055.35 2533.94C3047.65 2538.31 3038.98 2540.49 3029.36 2540.49C3019.67 2540.49 3010.97 2538.29 3003.26 2533.89C2995.55 2529.48 2989.46 2523.11 2984.99 2514.76C2980.51 2506.42 2978.28 2496.32 2978.28 2484.45C2978.28 2472.56 2980.51 2462.44 2984.99 2454.09C2989.46 2445.75 2995.55 2439.39 3003.26 2435.02C3010.97 2430.62 3019.67 2428.42 3029.36 2428.42C3038.98 2428.42 3047.65 2430.62 3055.35 2435.02C3063.1 2439.39 3069.2 2445.75 3073.68 2454.09C3078.19 2462.44 3080.44 2472.56 3080.44 2484.45ZM3057.06 2484.45C3057.06 2476.75 3055.9 2470.25 3053.6 2464.96C3051.32 2459.67 3048.11 2455.65 3043.96 2452.92C3039.8 2450.19 3034.94 2448.82 3029.36 2448.82C3023.78 2448.82 3018.92 2450.19 3014.76 2452.92C3010.61 2455.65 3007.38 2459.67 3005.07 2464.96C3002.8 2470.25 3001.66 2476.75 3001.66 2484.45C3001.66 2492.16 3002.8 2498.66 3005.07 2503.95C3007.38 2509.24 3010.61 2513.25 3014.76 2515.99C3018.92 2518.72 3023.78 2520.09 3029.36 2520.09C3034.94 2520.09 3039.8 2518.72 3043.96 2515.99C3048.11 2513.25 3051.32 2509.24 3053.6 2503.95C3055.9 2498.66 3057.06 2492.16 3057.06 2484.45ZM3106.53 2539V2429.91H3149.57C3157.81 2429.91 3164.84 2431.38 3170.66 2434.33C3176.52 2437.24 3180.98 2441.38 3184.03 2446.74C3187.12 2452.07 3188.67 2458.34 3188.67 2465.54C3188.67 2472.79 3187.1 2479.02 3183.98 2484.24C3180.85 2489.43 3176.33 2493.4 3170.4 2496.17C3164.5 2498.94 3157.36 2500.33 3148.98 2500.33H3120.16V2481.79H3145.25C3149.66 2481.79 3153.31 2481.19 3156.23 2479.98C3159.14 2478.77 3161.3 2476.96 3162.73 2474.55C3164.18 2472.13 3164.91 2469.13 3164.91 2465.54C3164.91 2461.92 3164.18 2458.87 3162.73 2456.38C3161.3 2453.9 3159.12 2452.01 3156.17 2450.74C3153.26 2449.42 3149.59 2448.77 3145.15 2448.77H3129.59V2539H3106.53ZM3165.44 2489.36L3192.55 2539H3167.09L3140.57 2489.36H3165.44ZM3213.97 2539V2429.91H3237.03V2478.01H3238.47L3277.73 2429.91H3305.37L3264.89 2478.75L3305.85 2539H3278.26L3248.38 2494.15L3237.03 2508V2539H3213.97ZM3326.38 2539V2429.91H3398.61V2448.93H3349.45V2474.92H3393.82V2493.94H3349.45V2539H3326.38ZM3523.38 2484.45C3523.38 2496.35 3521.12 2506.47 3516.61 2514.82C3512.14 2523.16 3506.03 2529.54 3498.29 2533.94C3490.58 2538.31 3481.92 2540.49 3472.29 2540.49C3462.6 2540.49 3453.9 2538.29 3446.19 2533.89C3438.49 2529.48 3432.4 2523.11 3427.92 2514.76C3423.45 2506.42 3421.21 2496.32 3421.21 2484.45C3421.21 2472.56 3423.45 2462.44 3427.92 2454.09C3432.4 2445.75 3438.49 2439.39 3446.19 2435.02C3453.9 2430.62 3462.6 2428.42 3472.29 2428.42C3481.92 2428.42 3490.58 2430.62 3498.29 2435.02C3506.03 2439.39 3512.14 2445.75 3516.61 2454.09C3521.12 2462.44 3523.38 2472.56 3523.38 2484.45ZM3499.99 2484.45C3499.99 2476.75 3498.84 2470.25 3496.53 2464.96C3494.26 2459.67 3491.04 2455.65 3486.89 2452.92C3482.73 2450.19 3477.87 2448.82 3472.29 2448.82C3466.72 2448.82 3461.85 2450.19 3457.7 2452.92C3453.54 2455.65 3450.31 2459.67 3448 2464.96C3445.73 2470.25 3444.59 2476.75 3444.59 2484.45C3444.59 2492.16 3445.73 2498.66 3448 2503.95C3450.31 2509.24 3453.54 2513.25 3457.7 2515.99C3461.85 2518.72 3466.72 2520.09 3472.29 2520.09C3477.87 2520.09 3482.73 2518.72 3486.89 2515.99C3491.04 2513.25 3494.26 2509.24 3496.53 2503.95C3498.84 2498.66 3499.99 2492.16 3499.99 2484.45ZM3549.46 2539V2429.91H3592.5C3600.74 2429.91 3607.77 2431.38 3613.6 2434.33C3619.45 2437.24 3623.91 2441.38 3626.97 2446.74C3630.06 2452.07 3631.6 2458.34 3631.6 2465.54C3631.6 2472.79 3630.04 2479.02 3626.91 2484.24C3623.79 2489.43 3619.26 2493.4 3613.33 2496.17C3607.43 2498.94 3600.3 2500.33 3591.92 2500.33H3563.1V2481.79H3588.19C3592.59 2481.79 3596.25 2481.19 3599.16 2479.98C3602.07 2478.77 3604.24 2476.96 3605.66 2474.55C3607.11 2472.13 3607.84 2469.13 3607.84 2465.54C3607.84 2461.92 3607.11 2458.87 3605.66 2456.38C3604.24 2453.9 3602.05 2452.01 3599.11 2450.74C3596.19 2449.42 3592.52 2448.77 3588.08 2448.77H3572.53V2539H3549.46ZM3608.38 2489.36L3635.49 2539H3610.03L3583.5 2489.36H3608.38ZM3753.15 2468.1H3729.82C3729.4 2465.08 3728.53 2462.4 3727.21 2460.06C3725.9 2457.68 3724.21 2455.65 3722.15 2453.99C3720.09 2452.32 3717.71 2451.04 3715.01 2450.15C3712.35 2449.26 3709.46 2448.82 3706.33 2448.82C3700.69 2448.82 3695.77 2450.22 3691.58 2453.03C3687.39 2455.8 3684.14 2459.85 3681.83 2465.17C3679.52 2470.46 3678.37 2476.89 3678.37 2484.45C3678.37 2492.23 3679.52 2498.77 3681.83 2504.06C3684.17 2509.35 3687.44 2513.34 3691.63 2516.04C3695.82 2518.74 3700.67 2520.09 3706.17 2520.09C3709.26 2520.09 3712.12 2519.68 3714.75 2518.87C3717.41 2518.05 3719.77 2516.86 3721.83 2515.3C3723.89 2513.7 3725.6 2511.76 3726.95 2509.49C3728.33 2507.22 3729.29 2504.62 3729.82 2501.71L3753.15 2501.82C3752.55 2506.83 3751.04 2511.66 3748.63 2516.31C3746.25 2520.92 3743.03 2525.06 3738.98 2528.72C3734.97 2532.34 3730.18 2535.22 3724.6 2537.35C3719.06 2539.44 3712.79 2540.49 3705.8 2540.49C3696.07 2540.49 3687.37 2538.29 3679.7 2533.89C3672.06 2529.48 3666.03 2523.11 3661.59 2514.76C3657.18 2506.42 3654.98 2496.32 3654.98 2484.45C3654.98 2472.56 3657.22 2462.44 3661.69 2454.09C3666.17 2445.75 3672.24 2439.39 3679.91 2435.02C3687.58 2430.62 3696.21 2428.42 3705.8 2428.42C3712.12 2428.42 3717.98 2429.31 3723.38 2431.08C3728.81 2432.86 3733.62 2435.45 3737.81 2438.86C3742 2442.23 3745.41 2446.37 3748.04 2451.27C3750.7 2456.17 3752.41 2461.78 3753.15 2468.1ZM3778.69 2539V2429.91H3852.2V2448.93H3801.76V2474.92H3848.42V2493.94H3801.76V2519.98H3852.41V2539H3778.69ZM3919.1 2448.93V2429.91H4008.7V2448.93H3975.3V2539H3952.5V2448.93H3919.1ZM4032.45 2539V2429.91H4055.51V2474.92H4102.34V2429.91H4125.35V2539H4102.34V2493.94H4055.51V2539H4032.45ZM4153.36 2539V2429.91H4196.4C4204.64 2429.91 4211.67 2431.38 4217.5 2434.33C4223.36 2437.24 4227.81 2441.38 4230.87 2446.74C4233.96 2452.07 4235.5 2458.34 4235.5 2465.54C4235.5 2472.79 4233.94 2479.02 4230.81 2484.24C4227.69 2489.43 4223.16 2493.4 4217.23 2496.17C4211.34 2498.94 4204.2 2500.33 4195.82 2500.33H4167V2481.79H4192.09C4196.49 2481.79 4200.15 2481.19 4203.06 2479.98C4205.97 2478.77 4208.14 2476.96 4209.56 2474.55C4211.02 2472.13 4211.75 2469.13 4211.75 2465.54C4211.75 2461.92 4211.02 2458.87 4209.56 2456.38C4208.14 2453.9 4205.96 2452.01 4203.01 2450.74C4200.1 2449.42 4196.42 2448.77 4191.98 2448.77H4176.43V2539H4153.36ZM4212.28 2489.36L4239.39 2539H4213.93L4187.4 2489.36H4212.28ZM4361.05 2484.45C4361.05 2496.35 4358.8 2506.47 4354.29 2514.82C4349.81 2523.16 4343.7 2529.54 4335.96 2533.94C4328.26 2538.31 4319.59 2540.49 4309.97 2540.49C4300.27 2540.49 4291.57 2538.29 4283.87 2533.89C4276.16 2529.48 4270.07 2523.11 4265.6 2514.76C4261.12 2506.42 4258.88 2496.32 4258.88 2484.45C4258.88 2472.56 4261.12 2462.44 4265.6 2454.09C4270.07 2445.75 4276.16 2439.39 4283.87 2435.02C4291.57 2430.62 4300.27 2428.42 4309.97 2428.42C4319.59 2428.42 4328.26 2430.62 4335.96 2435.02C4343.7 2439.39 4349.81 2445.75 4354.29 2454.09C4358.8 2462.44 4361.05 2472.56 4361.05 2484.45ZM4337.67 2484.45C4337.67 2476.75 4336.51 2470.25 4334.2 2464.96C4331.93 2459.67 4328.72 2455.65 4324.56 2452.92C4320.41 2450.19 4315.54 2448.82 4309.97 2448.82C4304.39 2448.82 4299.53 2450.19 4295.37 2452.92C4291.22 2455.65 4287.99 2459.67 4285.68 2464.96C4283.4 2470.25 4282.27 2476.75 4282.27 2484.45C4282.27 2492.16 4283.4 2498.66 4285.68 2503.95C4287.99 2509.24 4291.22 2513.25 4295.37 2515.99C4299.53 2518.72 4304.39 2520.09 4309.97 2520.09C4315.54 2520.09 4320.41 2518.72 4324.56 2515.99C4328.72 2513.25 4331.93 2509.24 4334.2 2503.95C4336.51 2498.66 4337.67 2492.16 4337.67 2484.45ZM4454.52 2429.91H4477.58V2500.75C4477.58 2508.71 4475.68 2515.67 4471.88 2521.63C4468.12 2527.6 4462.85 2532.25 4456.06 2535.59C4449.28 2538.89 4441.38 2540.54 4432.36 2540.54C4423.3 2540.54 4415.39 2538.89 4408.6 2535.59C4401.82 2532.25 4396.55 2527.6 4392.78 2521.63C4389.02 2515.67 4387.14 2508.71 4387.14 2500.75V2429.91H4410.2V2498.78C4410.2 2502.94 4411.11 2506.63 4412.92 2509.86C4414.76 2513.09 4417.36 2515.63 4420.69 2517.48C4424.03 2519.33 4427.92 2520.25 4432.36 2520.25C4436.83 2520.25 4440.72 2519.33 4444.03 2517.48C4447.36 2515.63 4449.94 2513.09 4451.75 2509.86C4453.6 2506.63 4454.52 2502.94 4454.52 2498.78V2429.91ZM4577.9 2465.17C4577.15 2462.58 4576.1 2460.29 4574.75 2458.3C4573.4 2456.28 4571.75 2454.57 4569.8 2453.19C4567.88 2451.77 4565.68 2450.68 4563.19 2449.94C4560.74 2449.19 4558.03 2448.82 4555.04 2448.82C4549.47 2448.82 4544.57 2450.2 4540.34 2452.97C4536.15 2455.74 4532.89 2459.77 4530.54 2465.07C4528.2 2470.32 4527.03 2476.75 4527.03 2484.35C4527.03 2491.95 4528.18 2498.41 4530.49 2503.74C4532.8 2509.06 4536.06 2513.13 4540.29 2515.94C4544.52 2518.71 4549.5 2520.09 4555.26 2520.09C4560.48 2520.09 4564.93 2519.17 4568.63 2517.32C4572.36 2515.44 4575.2 2512.79 4577.15 2509.38C4579.14 2505.97 4580.13 2501.94 4580.13 2497.29L4584.82 2497.98H4556.7V2480.62H4602.35V2494.36C4602.35 2503.95 4600.32 2512.19 4596.27 2519.08C4592.23 2525.93 4586.65 2531.22 4579.55 2534.95C4572.45 2538.64 4564.31 2540.49 4555.15 2540.49C4544.92 2540.49 4535.94 2538.24 4528.2 2533.73C4520.46 2529.18 4514.42 2522.74 4510.09 2514.39C4505.79 2506.01 4503.64 2496.07 4503.64 2484.56C4503.64 2475.72 4504.92 2467.84 4507.48 2460.91C4510.07 2453.95 4513.69 2448.06 4518.34 2443.23C4523 2438.4 4528.41 2434.72 4534.59 2432.2C4540.77 2429.68 4547.46 2428.42 4554.67 2428.42C4560.85 2428.42 4566.6 2429.32 4571.93 2431.13C4577.26 2432.91 4581.98 2435.43 4586.1 2438.7C4590.25 2441.97 4593.65 2445.85 4596.27 2450.36C4598.9 2454.84 4600.59 2459.77 4601.33 2465.17H4577.9ZM4628.67 2539V2429.91H4651.74V2474.92H4698.56V2429.91H4721.57V2539H4698.56V2493.94H4651.74V2539H4628.67ZM4812.11 2539H4787.39L4825.05 2429.91H4854.77L4892.38 2539H4867.66L4840.34 2454.84H4839.48L4812.11 2539ZM4810.56 2496.12H4868.94V2514.12H4810.56V2496.12ZM4953.18 2539H4914.51V2429.91H4953.5C4964.47 2429.91 4973.92 2432.09 4981.84 2436.46C4989.76 2440.79 4995.85 2447.03 5000.11 2455.16C5004.41 2463.29 5006.55 2473.02 5006.55 2484.35C5006.55 2495.71 5004.41 2505.48 5000.11 2513.64C4995.85 2521.81 4989.72 2528.08 4981.73 2532.45C4973.78 2536.82 4964.26 2539 4953.18 2539ZM4937.57 2519.24H4952.22C4959.04 2519.24 4964.78 2518.03 4969.43 2515.62C4974.11 2513.17 4977.63 2509.38 4979.97 2504.27C4982.35 2499.12 4983.54 2492.48 4983.54 2484.35C4983.54 2476.29 4982.35 2469.7 4979.97 2464.59C4977.63 2459.47 4974.13 2455.71 4969.48 2453.29C4964.83 2450.88 4959.09 2449.67 4952.28 2449.67H4937.57V2519.24ZM5045.29 2539H5020.57L5058.23 2429.91H5087.96L5125.56 2539H5100.85L5073.52 2454.84H5072.67L5045.29 2539ZM5043.75 2496.12H5102.13V2514.12H5043.75V2496.12ZM5147.69 2539V2429.91H5190.73C5199.01 2429.91 5206.06 2431.49 5211.88 2434.65C5217.71 2437.77 5222.14 2442.12 5225.2 2447.7C5228.29 2453.24 5229.83 2459.63 5229.83 2466.88C5229.83 2474.12 5228.27 2480.51 5225.14 2486.05C5222.02 2491.59 5217.49 2495.91 5211.56 2499C5205.67 2502.09 5198.53 2503.63 5190.15 2503.63H5162.72V2485.15H5186.42C5190.86 2485.15 5194.52 2484.38 5197.39 2482.86C5200.3 2481.29 5202.47 2479.15 5203.89 2476.41C5205.35 2473.64 5206.08 2470.46 5206.08 2466.88C5206.08 2463.25 5205.35 2460.09 5203.89 2457.39C5202.47 2454.66 5200.3 2452.55 5197.39 2451.06C5194.48 2449.53 5190.79 2448.77 5186.31 2448.77H5170.76V2539H5147.69ZM5249.66 2448.93V2429.91H5339.25V2448.93H5305.86V2539H5283.06V2448.93H5249.66ZM5386.07 2429.91V2539H5363.01V2429.91H5386.07ZM5433.76 2429.91L5460.13 2512.79H5461.14L5487.56 2429.91H5513.13L5475.52 2539H5445.8L5408.14 2429.91H5433.76ZM5535.26 2539V2429.91H5608.77V2448.93H5558.32V2474.92H5604.98V2493.94H5558.32V2519.98H5608.98V2539H5535.26ZM5698.62 2539H5673.91L5711.57 2429.91H5741.29L5778.9 2539H5754.18L5726.85 2454.84H5726L5698.62 2539ZM5697.08 2496.12H5755.46V2514.12H5697.08V2496.12ZM5892.27 2429.91V2539H5872.35L5824.89 2470.34H5824.09V2539H5801.03V2429.91H5821.27L5868.36 2498.52H5869.31V2429.91H5892.27ZM5959 2539H5920.33V2429.91H5959.32C5970.29 2429.91 5979.74 2432.09 5987.66 2436.46C5995.58 2440.79 6001.67 2447.03 6005.93 2455.16C6010.23 2463.29 6012.37 2473.02 6012.37 2484.35C6012.37 2495.71 6010.23 2505.48 6005.93 2513.64C6001.67 2521.81 5995.54 2528.08 5987.55 2532.45C5979.6 2536.82 5970.08 2539 5959 2539ZM5943.39 2519.24H5958.04C5964.86 2519.24 5970.6 2518.03 5975.25 2515.62C5979.94 2513.17 5983.45 2509.38 5985.79 2504.27C5988.17 2499.12 5989.36 2492.48 5989.36 2484.35C5989.36 2476.29 5988.17 2469.7 5985.79 2464.59C5983.45 2459.47 5979.95 2455.71 5975.3 2453.29C5970.65 2450.88 5964.91 2449.67 5958.1 2449.67H5943.39V2519.24ZM6082.18 2539V2429.91H6125.22C6133.46 2429.91 6140.49 2431.38 6146.31 2434.33C6152.17 2437.24 6156.63 2441.38 6159.68 2446.74C6162.77 2452.07 6164.31 2458.34 6164.31 2465.54C6164.31 2472.79 6162.75 2479.02 6159.63 2484.24C6156.5 2489.43 6151.97 2493.4 6146.04 2496.17C6140.15 2498.94 6133.01 2500.33 6124.63 2500.33H6095.81V2481.79H6120.9C6125.31 2481.79 6128.96 2481.19 6131.88 2479.98C6134.79 2478.77 6136.95 2476.96 6138.37 2474.55C6139.83 2472.13 6140.56 2469.13 6140.56 2465.54C6140.56 2461.92 6139.83 2458.87 6138.37 2456.38C6136.95 2453.9 6134.77 2452.01 6131.82 2450.74C6128.91 2449.42 6125.23 2448.77 6120.8 2448.77H6105.24V2539H6082.18ZM6141.09 2489.36L6168.2 2539H6142.74L6116.21 2489.36H6141.09ZM6189.61 2539V2429.91H6263.12V2448.93H6212.68V2474.92H6259.34V2493.94H6212.68V2519.98H6263.34V2539H6189.61ZM6349.64 2461.28C6349.21 2456.99 6347.38 2453.65 6344.15 2451.27C6340.92 2448.89 6336.54 2447.7 6331 2447.7C6327.23 2447.7 6324.05 2448.23 6321.46 2449.3C6318.87 2450.33 6316.88 2451.77 6315.5 2453.61C6314.15 2455.46 6313.47 2457.55 6313.47 2459.9C6313.4 2461.85 6313.81 2463.56 6314.7 2465.01C6315.62 2466.47 6316.88 2467.73 6318.48 2468.79C6320.08 2469.82 6321.92 2470.73 6324.02 2471.51C6326.11 2472.26 6328.35 2472.9 6330.73 2473.43L6340.53 2475.77C6345.29 2476.84 6349.66 2478.26 6353.63 2480.03C6357.61 2481.81 6361.06 2483.99 6363.97 2486.59C6366.88 2489.18 6369.14 2492.23 6370.73 2495.75C6372.37 2499.26 6373.2 2503.29 6373.24 2507.84C6373.2 2514.51 6371.5 2520.3 6368.12 2525.2C6364.79 2530.07 6359.96 2533.85 6353.63 2536.55C6347.35 2539.21 6339.77 2540.54 6330.89 2540.54C6322.08 2540.54 6314.41 2539.2 6307.88 2536.5C6301.38 2533.8 6296.3 2529.8 6292.64 2524.51C6289.02 2519.18 6287.12 2512.6 6286.94 2504.75H6309.26C6309.51 2508.41 6310.56 2511.46 6312.41 2513.91C6314.29 2516.33 6316.79 2518.15 6319.92 2519.4C6323.08 2520.61 6326.65 2521.21 6330.62 2521.21C6334.53 2521.21 6337.92 2520.64 6340.8 2519.5C6343.71 2518.37 6345.96 2516.79 6347.56 2514.76C6349.16 2512.74 6349.96 2510.41 6349.96 2507.79C6349.96 2505.34 6349.23 2503.28 6347.78 2501.61C6346.35 2499.94 6344.26 2498.52 6341.49 2497.35C6338.76 2496.17 6335.4 2495.11 6331.42 2494.15L6319.54 2491.17C6310.35 2488.93 6303.08 2485.43 6297.76 2480.67C6292.43 2475.91 6289.79 2469.5 6289.82 2461.44C6289.79 2454.84 6291.54 2449.07 6295.09 2444.13C6298.68 2439.2 6303.6 2435.34 6309.85 2432.57C6316.1 2429.8 6323.2 2428.42 6331.16 2428.42C6339.25 2428.42 6346.32 2429.8 6352.36 2432.57C6358.43 2435.34 6363.15 2439.2 6366.53 2444.13C6369.9 2449.07 6371.64 2454.78 6371.75 2461.28H6349.64ZM6397.75 2539V2429.91H6440.79C6449.06 2429.91 6456.11 2431.49 6461.94 2434.65C6467.76 2437.77 6472.2 2442.12 6475.25 2447.7C6478.34 2453.24 6479.89 2459.63 6479.89 2466.88C6479.89 2474.12 6478.33 2480.51 6475.2 2486.05C6472.08 2491.59 6467.55 2495.91 6461.62 2499C6455.72 2502.09 6448.59 2503.63 6440.2 2503.63H6412.77V2485.15H6436.48C6440.92 2485.15 6444.57 2484.38 6447.45 2482.86C6450.36 2481.29 6452.53 2479.15 6453.95 2476.41C6455.4 2473.64 6456.13 2470.46 6456.13 2466.88C6456.13 2463.25 6455.4 2460.09 6453.95 2457.39C6452.53 2454.66 6450.36 2452.55 6447.45 2451.06C6444.54 2449.53 6440.84 2448.77 6436.37 2448.77H6420.82V2539H6397.75ZM6604.12 2484.45C6604.12 2496.35 6601.86 2506.47 6597.35 2514.82C6592.88 2523.16 6586.77 2529.54 6579.03 2533.94C6571.32 2538.31 6562.66 2540.49 6553.04 2540.49C6543.34 2540.49 6534.64 2538.29 6526.93 2533.89C6519.23 2529.48 6513.14 2523.11 6508.66 2514.76C6504.19 2506.42 6501.95 2496.32 6501.95 2484.45C6501.95 2472.56 6504.19 2462.44 6508.66 2454.09C6513.14 2445.75 6519.23 2439.39 6526.93 2435.02C6534.64 2430.62 6543.34 2428.42 6553.04 2428.42C6562.66 2428.42 6571.32 2430.62 6579.03 2435.02C6586.77 2439.39 6592.88 2445.75 6597.35 2454.09C6601.86 2462.44 6604.12 2472.56 6604.12 2484.45ZM6580.73 2484.45C6580.73 2476.75 6579.58 2470.25 6577.27 2464.96C6575 2459.67 6571.79 2455.65 6567.63 2452.92C6563.48 2450.19 6558.61 2448.82 6553.04 2448.82C6547.46 2448.82 6542.6 2450.19 6538.44 2452.92C6534.29 2455.65 6531.05 2459.67 6528.75 2464.96C6526.47 2470.25 6525.34 2476.75 6525.34 2484.45C6525.34 2492.16 6526.47 2498.66 6528.75 2503.95C6531.05 2509.24 6534.29 2513.25 6538.44 2515.99C6542.6 2518.72 6547.46 2520.09 6553.04 2520.09C6558.61 2520.09 6563.48 2518.72 6567.63 2515.99C6571.79 2513.25 6575 2509.24 6577.27 2503.95C6579.58 2498.66 6580.73 2492.16 6580.73 2484.45ZM6721.45 2429.91V2539H6701.53L6654.07 2470.34H6653.27V2539H6630.2V2429.91H6650.45L6697.53 2498.52H6698.49V2429.91H6721.45ZM6808.69 2461.28C6808.26 2456.99 6806.43 2453.65 6803.2 2451.27C6799.97 2448.89 6795.58 2447.7 6790.04 2447.7C6786.28 2447.7 6783.1 2448.23 6780.51 2449.3C6777.92 2450.33 6775.93 2451.77 6774.54 2453.61C6773.19 2455.46 6772.52 2457.55 6772.52 2459.9C6772.45 2461.85 6772.86 2463.56 6773.74 2465.01C6774.67 2466.47 6775.93 2467.73 6777.53 2468.79C6779.12 2469.82 6780.97 2470.73 6783.07 2471.51C6785.16 2472.26 6787.4 2472.9 6789.78 2473.43L6799.58 2475.77C6804.34 2476.84 6808.7 2478.26 6812.68 2480.03C6816.66 2481.81 6820.1 2483.99 6823.02 2486.59C6825.93 2489.18 6828.18 2492.23 6829.78 2495.75C6831.41 2499.26 6832.25 2503.29 6832.28 2507.84C6832.25 2514.51 6830.54 2520.3 6827.17 2525.2C6823.83 2530.07 6819 2533.85 6812.68 2536.55C6806.4 2539.21 6798.81 2540.54 6789.94 2540.54C6781.13 2540.54 6773.46 2539.2 6766.93 2536.5C6760.43 2533.8 6755.35 2529.8 6751.69 2524.51C6748.07 2519.18 6746.17 2512.6 6745.99 2504.75H6768.31C6768.56 2508.41 6769.61 2511.46 6771.45 2513.91C6773.34 2516.33 6775.84 2518.15 6778.96 2519.4C6782.12 2520.61 6785.69 2521.21 6789.67 2521.21C6793.58 2521.21 6796.97 2520.64 6799.84 2519.5C6802.76 2518.37 6805.01 2516.79 6806.61 2514.76C6808.21 2512.74 6809.01 2510.41 6809.01 2507.79C6809.01 2505.34 6808.28 2503.28 6806.82 2501.61C6805.4 2499.94 6803.31 2498.52 6800.54 2497.35C6797.8 2496.17 6794.45 2495.11 6790.47 2494.15L6778.59 2491.17C6769.39 2488.93 6762.13 2485.43 6756.8 2480.67C6751.48 2475.91 6748.83 2469.5 6748.87 2461.44C6748.83 2454.84 6750.59 2449.07 6754.14 2444.13C6757.73 2439.2 6762.65 2435.34 6768.9 2432.57C6775.15 2429.8 6782.25 2428.42 6790.2 2428.42C6798.3 2428.42 6805.37 2429.8 6811.4 2432.57C6817.48 2435.34 6822.2 2439.2 6825.57 2444.13C6828.95 2449.07 6830.69 2454.78 6830.79 2461.28H6808.69ZM6879.86 2429.91V2539H6856.8V2429.91H6879.86ZM6927.55 2429.91L6953.91 2512.79H6954.93L6981.35 2429.91H7006.92L6969.31 2539H6939.59L6901.93 2429.91H6927.55ZM7029.05 2539V2429.91H7102.55V2448.93H7052.11V2474.92H7098.77V2493.94H7052.11V2519.98H7102.77V2539H7029.05ZM7212.28 2539H7173.61V2429.91H7212.6C7223.57 2429.91 7233.02 2432.09 7240.94 2436.46C7248.86 2440.79 7254.95 2447.03 7259.21 2455.16C7263.51 2463.29 7265.65 2473.02 7265.65 2484.35C7265.65 2495.71 7263.51 2505.48 7259.21 2513.64C7254.95 2521.81 7248.82 2528.08 7240.83 2532.45C7232.88 2536.82 7223.36 2539 7212.28 2539ZM7196.67 2519.24H7211.32C7218.14 2519.24 7223.87 2518.03 7228.53 2515.62C7233.21 2513.17 7236.73 2509.38 7239.07 2504.27C7241.45 2499.12 7242.64 2492.48 7242.64 2484.35C7242.64 2476.29 7241.45 2469.7 7239.07 2464.59C7236.73 2459.47 7233.23 2455.71 7228.58 2453.29C7223.93 2450.88 7218.19 2449.67 7211.37 2449.67H7196.67V2519.24ZM7314.8 2429.91V2539H7291.74V2429.91H7314.8ZM7415.12 2465.17C7414.37 2462.58 7413.32 2460.29 7411.97 2458.3C7410.62 2456.28 7408.97 2454.57 7407.02 2453.19C7405.1 2451.77 7402.9 2450.68 7400.42 2449.94C7397.97 2449.19 7395.25 2448.82 7392.27 2448.82C7386.69 2448.82 7381.79 2450.2 7377.56 2452.97C7373.37 2455.74 7370.11 2459.77 7367.76 2465.07C7365.42 2470.32 7364.25 2476.75 7364.25 2484.35C7364.25 2491.95 7365.4 2498.41 7367.71 2503.74C7370.02 2509.06 7373.28 2513.13 7377.51 2515.94C7381.74 2518.71 7386.73 2520.09 7392.48 2520.09C7397.7 2520.09 7402.16 2519.17 7405.85 2517.32C7409.58 2515.44 7412.42 2512.79 7414.37 2509.38C7416.36 2505.97 7417.35 2501.94 7417.35 2497.29L7422.04 2497.98H7393.92V2480.62H7439.57V2494.36C7439.57 2503.95 7437.54 2512.19 7433.49 2519.08C7429.45 2525.93 7423.87 2531.22 7416.77 2534.95C7409.67 2538.64 7401.53 2540.49 7392.37 2540.49C7382.14 2540.49 7373.16 2538.24 7365.42 2533.73C7357.68 2529.18 7351.64 2522.74 7347.31 2514.39C7343.01 2506.01 7340.86 2496.07 7340.86 2484.56C7340.86 2475.72 7342.14 2467.84 7344.7 2460.91C7347.29 2453.95 7350.91 2448.06 7355.56 2443.23C7360.22 2438.4 7365.63 2434.72 7371.81 2432.2C7377.99 2429.68 7384.68 2428.42 7391.89 2428.42C7398.07 2428.42 7403.82 2429.32 7409.15 2431.13C7414.48 2432.91 7419.2 2435.43 7423.32 2438.7C7427.47 2441.97 7430.87 2445.85 7433.49 2450.36C7436.12 2454.84 7437.81 2459.77 7438.55 2465.17H7415.12ZM7488.96 2429.91V2539H7465.89V2429.91H7488.96ZM7512.78 2448.93V2429.91H7602.37V2448.93H7568.97V2539H7546.18V2448.93H7512.78ZM7631.6 2539H7606.89L7644.55 2429.91H7674.27L7711.87 2539H7687.16L7659.83 2454.84H7658.98L7631.6 2539ZM7630.06 2496.12H7688.44V2514.12H7630.06V2496.12ZM7734 2539V2429.91H7757.07V2519.98H7803.84V2539H7734ZM7871.83 2539V2429.91H7894.89V2478.01H7896.33L7935.59 2429.91H7963.24L7922.75 2478.75L7963.71 2539H7936.12L7906.24 2494.15L7894.89 2508V2539H7871.83ZM8075.49 2429.91V2539H8055.57L8008.11 2470.34H8007.31V2539H7984.25V2429.91H8004.49L8051.58 2498.52H8052.54V2429.91H8075.49ZM8203.8 2484.45C8203.8 2496.35 8201.54 2506.47 8197.03 2514.82C8192.56 2523.16 8186.45 2529.54 8178.71 2533.94C8171 2538.31 8162.34 2540.49 8152.72 2540.49C8143.02 2540.49 8134.32 2538.29 8126.61 2533.89C8118.91 2529.48 8112.82 2523.11 8108.34 2514.76C8103.87 2506.42 8101.63 2496.32 8101.63 2484.45C8101.63 2472.56 8103.87 2462.44 8108.34 2454.09C8112.82 2445.75 8118.91 2439.39 8126.61 2435.02C8134.32 2430.62 8143.02 2428.42 8152.72 2428.42C8162.34 2428.42 8171 2430.62 8178.71 2435.02C8186.45 2439.39 8192.56 2445.75 8197.03 2454.09C8201.54 2462.44 8203.8 2472.56 8203.8 2484.45ZM8180.41 2484.45C8180.41 2476.75 8179.26 2470.25 8176.95 2464.96C8174.68 2459.67 8171.47 2455.65 8167.31 2452.92C8163.16 2450.19 8158.29 2448.82 8152.72 2448.82C8147.14 2448.82 8142.28 2450.19 8138.12 2452.92C8133.97 2455.65 8130.73 2459.67 8128.43 2464.96C8126.15 2470.25 8125.02 2476.75 8125.02 2484.45C8125.02 2492.16 8126.15 2498.66 8128.43 2503.95C8130.73 2509.24 8133.97 2513.25 8138.12 2515.99C8142.28 2518.72 8147.14 2520.09 8152.72 2520.09C8158.29 2520.09 8163.16 2518.72 8167.31 2515.99C8171.47 2513.25 8174.68 2509.24 8176.95 2503.95C8179.26 2498.66 8180.41 2492.16 8180.41 2484.45ZM8250.34 2539L8219.12 2429.91H8244.32L8262.38 2505.71H8263.28L8283.2 2429.91H8304.78L8324.65 2505.87H8325.6L8343.66 2429.91H8368.86L8337.64 2539H8315.16L8294.39 2467.68H8293.54L8272.82 2539H8250.34ZM8390.2 2539V2429.91H8413.27V2519.98H8460.04V2539H8390.2ZM8484.31 2539V2429.91H8557.82V2448.93H8507.37V2474.92H8554.04V2493.94H8507.37V2519.98H8558.03V2539H8484.31ZM8623.83 2539H8585.16V2429.91H8624.15C8635.12 2429.91 8644.57 2432.09 8652.48 2436.46C8660.4 2440.79 8666.49 2447.03 8670.76 2455.16C8675.05 2463.29 8677.2 2473.02 8677.2 2484.35C8677.2 2495.71 8675.05 2505.48 8670.76 2513.64C8666.49 2521.81 8660.37 2528.08 8652.38 2532.45C8644.42 2536.82 8634.91 2539 8623.83 2539ZM8608.22 2519.24H8622.87C8629.69 2519.24 8635.42 2518.03 8640.07 2515.62C8644.76 2513.17 8648.28 2509.38 8650.62 2504.27C8653 2499.12 8654.19 2492.48 8654.19 2484.35C8654.19 2476.29 8653 2469.7 8650.62 2464.59C8648.28 2459.47 8644.78 2455.71 8640.13 2453.29C8635.47 2450.88 8629.74 2449.67 8622.92 2449.67H8608.22V2519.24ZM8775.62 2465.17C8774.88 2462.58 8773.83 2460.29 8772.48 2458.3C8771.13 2456.28 8769.48 2454.57 8767.53 2453.19C8765.61 2451.77 8763.41 2450.68 8760.92 2449.94C8758.47 2449.19 8755.75 2448.82 8752.77 2448.82C8747.2 2448.82 8742.3 2450.2 8738.07 2452.97C8733.88 2455.74 8730.61 2459.77 8728.27 2465.07C8725.92 2470.32 8724.75 2476.75 8724.75 2484.35C8724.75 2491.95 8725.91 2498.41 8728.22 2503.74C8730.52 2509.06 8733.79 2513.13 8738.02 2515.94C8742.24 2518.71 8747.23 2520.09 8752.98 2520.09C8758.2 2520.09 8762.66 2519.17 8766.35 2517.32C8770.08 2515.44 8772.92 2512.79 8774.88 2509.38C8776.87 2505.97 8777.86 2501.94 8777.86 2497.29L8782.55 2497.98H8754.42V2480.62H8800.07V2494.36C8800.07 2503.95 8798.05 2512.19 8794 2519.08C8789.95 2525.93 8784.38 2531.22 8777.27 2534.95C8770.17 2538.64 8762.04 2540.49 8752.88 2540.49C8742.65 2540.49 8733.67 2538.24 8725.92 2533.73C8718.18 2529.18 8712.15 2522.74 8707.81 2514.39C8703.52 2506.01 8701.37 2496.07 8701.37 2484.56C8701.37 2475.72 8702.65 2467.84 8705.2 2460.91C8707.8 2453.95 8711.42 2448.06 8716.07 2443.23C8720.72 2438.4 8726.14 2434.72 8732.32 2432.2C8738.5 2429.68 8745.19 2428.42 8752.4 2428.42C8758.58 2428.42 8764.33 2429.32 8769.66 2431.13C8774.98 2432.91 8779.71 2435.43 8783.83 2438.7C8787.98 2441.97 8791.37 2445.85 8794 2450.36C8796.63 2454.84 8798.31 2459.77 8799.06 2465.17H8775.62ZM8826.4 2539V2429.91H8899.91V2448.93H8849.46V2474.92H8896.12V2493.94H8849.46V2519.98H8900.12V2539H8826.4Z" fill="#D46E2C"/>
<defs>
<linearGradient id="paint0_linear_55_38" x1="4435.5" y1="294.773" x2="3364.62" y2="2314" gradientUnits="userSpaceOnUse">
<stop stop-color="#D35225"/>
<stop offset="0.626402" stop-color="#D7B635"/>
</linearGradient>
<linearGradient id="paint1_linear_55_38" x1="5103.5" y1="97.7735" x2="3552.62" y2="2053.5" gradientUnits="userSpaceOnUse">
<stop stop-color="#CF4713"/>
<stop offset="0.772743" stop-color="#D6AF2E"/>
</linearGradient>
</defs>
</svg>
